<?xml version="1.0" encoding="UTF-8" standalone="no"?>
<!-- Created with Inkscape (http://www.inkscape.org/) -->

<svg
   xmlns:dc="http://purl.org/dc/elements/1.1/"
   xmlns:cc="http://creativecommons.org/ns#"
   xmlns:rdf="http://www.w3.org/1999/02/22-rdf-syntax-ns#"
   xmlns:svg="http://www.w3.org/2000/svg"
   xmlns="http://www.w3.org/2000/svg"
   xmlns:sodipodi="http://sodipodi.sourceforge.net/DTD/sodipodi-0.dtd"
   xmlns:inkscape="http://www.inkscape.org/namespaces/inkscape"
   width="512"
   height="512"
   viewBox="0 0 135.46666 135.46667"
   version="1.1"
   id="svg8"
   inkscape:version="0.92.4 5da689c313, 2019-01-14"
   sodipodi:docname="icon.svg"
   inkscape:export-filename="/home/jacobian/Proyectos/ataraxia/public/icon.png"
   inkscape:export-xdpi="96"
   inkscape:export-ydpi="96">
  <defs
     id="defs2" />
  <sodipodi:namedview
     id="base"
     pagecolor="#ffffff"
     bordercolor="#000000"
     borderopacity="1"
     inkscape:pageopacity="0.0"
     inkscape:pageshadow="2"
     inkscape:zoom="1.4"
     inkscape:cx="241.75807"
     inkscape:cy="243.76216"
     inkscape:document-units="px"
     inkscape:current-layer="layer1"
     showgrid="false"
     units="px"
     borderlayer="true"
     inkscape:showpageshadow="false"
     inkscape:window-width="1918"
     inkscape:window-height="1044"
     inkscape:window-x="1080"
     inkscape:window-y="712"
     inkscape:window-maximized="1"
     inkscape:pagecheckerboard="true"
     showguides="true">
    <inkscape:grid
       type="xygrid"
       id="grid10"
       spacingx="2.1166666"
       spacingy="2.1166666"
       empspacing="4" />
  </sodipodi:namedview>
  <metadata
     id="metadata5">
    <rdf:RDF>
      <cc:Work
         rdf:about="">
        <dc:format>image/svg+xml</dc:format>
        <dc:type
           rdf:resource="http://purl.org/dc/dcmitype/StillImage" />
        <dc:title />
      </cc:Work>
    </rdf:RDF>
  </metadata>
  <g
     inkscape:label="Capa 1"
     inkscape:groupmode="layer"
     id="layer1"
     transform="translate(0,-161.53331)">
    <path
       style="fill:#000000;fill-opacity:1;stroke:none;stroke-width:11.16500759;stroke-linecap:round;stroke-linejoin:round;stroke-miterlimit:4;stroke-dasharray:none;stroke-opacity:1"
       d="M 256 0 A 255.99999 255.99999 0 0 0 0 256 A 255.99999 255.99999 0 0 0 256 512 A 255.99999 255.99999 0 0 0 512 256 A 255.99999 255.99999 0 0 0 256 0 z M 256 23.572266 A 232.42856 232.42856 0 0 1 488.42773 256 A 232.42856 232.42856 0 0 1 256 488.42773 A 232.42856 232.42856 0 0 1 23.572266 256 A 232.42856 232.42856 0 0 1 256 23.572266 z "
       transform="matrix(0.26458333,0,0,0.26458333,0,161.53331)"
       id="path817" />
    <g
       id="g855"
       transform="matrix(0.9084821,0,0,0.9084821,6.198812,20.982)">
      <path
         id="rect4633-3"
         d="m 67.733332,161.53331 c -37.524281,0 -67.7333294061952,30.20905 -67.7333294061952,67.73333 0,6.30906 0.8574332361952,12.40982 2.4565609061952,18.19649 8.3019825,-3.33308 17.8507375,-4.48441 28.0696245,-4.46296 34.130238,0.0717 75.718772,13.1957 103.203122,1.63712 1.13673,-4.93534 1.73735,-10.08036 1.73735,-15.37065 0,-37.52428 -30.20905,-67.73333 -67.733328,-67.73333 z"
         style="fill:#ffffff;fill-opacity:1;stroke:none;stroke-width:1.85208428;stroke-linecap:round;stroke-linejoin:round;stroke-miterlimit:4;stroke-dasharray:none;stroke-opacity:1"
         inkscape:connector-curvature="0" />
      <path
         id="rect4633"
         d="m 29.216726,243.00545 c -9.725103,0.0775 -18.813696,1.26806 -26.7601625,4.45826 7.9121515,28.6303 34.0617485,49.53626 65.2767685,49.53626 32.232054,0 59.066078,-22.28889 65.994218,-52.3574 -27.83708,11.70408 -70.142366,-1.91119 -104.510824,-1.63712 z"
         style="fill:#f5f5f5;fill-opacity:1;stroke:none;stroke-width:1.85208428;stroke-linecap:round;stroke-linejoin:round;stroke-miterlimit:4;stroke-dasharray:none;stroke-opacity:1"
         inkscape:connector-curvature="0" />
    </g>
    <path
       inkscape:connector-curvature="0"
       id="path29"
       d="m 53.452772,280.14733 c -0.03608,-0.036 -1.105498,-0.0987 -2.376645,-0.13932 -3.015976,-0.0964 -3.06035,-0.10627 -2.296361,-0.5125 0.621363,-0.33036 0.741502,-0.4458 1.223766,-1.17575 0.3924,-0.59395 0.900905,-2.11345 1.194703,-3.57009 0.276344,-1.37002 0.776752,-3.52138 0.874102,-3.75798 0.236779,-0.57543 1.418691,-2.92779 1.762286,-3.50745 0.655737,-1.1063 1.131011,-2.4866 1.131011,-3.28474 0,-1.73505 -1.443913,-4.13819 -3.356893,-5.58695 -1.269392,-0.96136 -5.433505,-3.71756 -5.61654,-3.71756 -0.04509,0 -2.353916,-1.52453 -3.225061,-2.12952 -1.32069,-0.91717 -3.642885,-3.13899 -4.549287,-4.35266 -0.315007,-0.42179 -1.118358,-1.96026 -1.45687,-2.79 -0.125918,-0.30866 -0.278757,-0.67394 -0.339647,-0.81173 -0.0608,-0.13779 -0.202634,-0.56058 -0.315015,-0.9395 -0.112393,-0.37893 -0.249453,-0.82989 -0.304602,-1.00213 -0.05517,-0.17225 -0.16495,-0.65138 -0.244032,-1.06476 -0.07903,-0.4134 -0.197853,-0.99199 -0.263939,-1.28579 -0.162507,-0.72238 -0.152858,-4.85756 0.01329,-5.68825 0.07341,-0.36695 0.191549,-0.97723 0.262573,-1.35616 0.285855,-1.52499 0.653149,-3.08896 1.64742,-7.0149 0.305346,-1.2057 0.620305,-2.57209 0.69988,-3.03645 0.07952,-0.46435 0.177363,-0.92938 0.217288,-1.03344 0.08582,-0.22376 -0.190203,-0.24797 -0.759549,-0.0666 -1.995756,0.63559 -2.121161,0.67902 -2.827384,0.97921 -0.172232,0.0732 -0.651375,0.25413 -1.064761,0.40204 -0.413375,0.14791 -0.920705,0.34254 -1.127394,0.43248 -0.206686,0.09 -0.601279,0.26095 -0.876856,0.38 -0.275595,0.11901 -0.664748,0.2948 -0.864802,0.39064 -0.200054,0.0957 -0.417001,0.17424 -0.482129,0.17424 -0.06507,0 -0.324216,0.0902 -0.575764,0.20066 -0.916401,0.40209 -1.847496,0.75368 -2.837422,1.07145 -0.413373,0.1327 -0.864336,0.29064 -1.002134,0.35097 -0.137788,0.0604 -0.39145,0.14642 -0.563692,0.19127 -0.172244,0.0447 -0.510464,0.13493 -0.751597,0.20018 -0.241133,0.0651 -0.663913,0.16725 -0.93949,0.22666 -0.275587,0.0595 -0.592174,0.1463 -0.703518,0.19305 -0.378717,0.15903 -1.27973,-1.9747 -1.434837,-3.39791 -0.137449,-1.26115 -0.08853,-1.3376 1.267268,-1.97965 0.655206,-0.31026 1.216464,-0.56413 1.247252,-0.56413 0.03084,0 0.425218,-0.16911 0.876489,-0.3758 0.451281,-0.20669 0.86488,-0.3758 0.919098,-0.3758 0.05421,0 0.320581,-0.10466 0.591891,-0.23256 0.2713,-0.12792 0.944222,-0.38525 1.495397,-0.57188 0.551172,-0.18662 1.128965,-0.392 1.283975,-0.45639 0.15502,-0.0645 0.408682,-0.16997 0.563702,-0.2346 0.155011,-0.0646 0.732814,-0.26336 1.283977,-0.44166 0.551173,-0.17829 1.10001,-0.37908 1.219644,-0.44622 0.119635,-0.0671 0.275266,-0.12202 0.345854,-0.12202 0.07059,0 0.395463,-0.11836 0.72198,-0.263 0.326497,-0.14466 0.706389,-0.30797 0.844176,-0.36288 1.07058,-0.4267 1.703771,-0.6888 2.160446,-0.89432 0.292585,-0.13168 0.674521,-0.29361 0.848752,-0.35985 0.174221,-0.0662 0.346842,-0.19879 0.383587,-0.29453 0.03675,-0.0956 -0.233658,-0.61803 -0.600873,-1.16059 -1.207029,-1.78342 -2.478747,-3.79885 -2.478747,-3.92836 0,-0.0699 -0.05635,-0.12716 -0.12527,-0.12716 -0.06885,0 -0.12526,-0.0541 -0.12526,-0.11988 0,-0.066 -0.459146,-0.8692 -1.020297,-1.78505 -0.561171,-0.91583 -1.357695,-2.22885 -1.770053,-2.91782 -0.876642,-1.46469 -2.958926,-4.73521 -3.588977,-5.63697 -0.240677,-0.34449 -0.611248,-0.88 -0.823482,-1.19002 -0.212235,-0.31005 -0.637286,-0.90218 -0.944534,-1.31587 -0.486436,-0.65492 -0.846969,-1.10631 -2.354361,-2.94767 -0.188893,-0.23076 -0.265036,-0.44389 -0.214959,-0.60169 0.08922,-0.28104 1.753353,-1.90542 2.950161,-2.87967 0.447829,-0.36457 0.926971,-0.76346 1.06476,-0.88642 0.137798,-0.12298 0.372976,-0.28838 0.522615,-0.36753 0.149648,-0.0791 0.346938,-0.21762 0.438433,-0.30766 0.201092,-0.19793 2.526845,-1.6563 3.485905,-2.18583 1.583447,-0.87431 3.626962,-1.84613 5.574339,-2.65094 0.137797,-0.057 0.391459,-0.16171 0.563701,-0.2328 0.172234,-0.071 0.518978,-0.21954 0.770526,-0.32993 0.251547,-0.11034 0.544162,-0.20068 0.65025,-0.20068 0.106102,0 0.223571,-0.0496 0.26107,-0.11033 0.03753,-0.0607 0.195837,-0.1388 0.351875,-0.17363 0.156028,-0.0348 0.762846,-0.24357 1.348454,-0.46387 0.585628,-0.22031 1.431171,-0.51485 1.879001,-0.65455 0.447818,-0.13969 1.462483,-0.46987 2.254788,-0.73372 1.24094,-0.41328 3.651303,-1.13445 4.446954,-1.33053 0.137788,-0.0341 0.363269,-0.10701 0.501057,-0.16228 0.13779,-0.0551 0.476011,-0.16064 0.751598,-0.23411 0.925273,-0.24666 2.001661,-0.5462 2.317432,-0.64492 0.172234,-0.0537 0.566825,-0.16719 0.876856,-0.25194 0.310032,-0.0848 0.676432,-0.19874 0.814232,-0.25331 0.137788,-0.0546 0.616931,-0.1932 1.064759,-0.30804 0.44782,-0.11479 1.112276,-0.31744 1.476575,-0.45018 0.364288,-0.13277 0.730699,-0.24096 0.81422,-0.24048 0.131156,5.7e-4 0.403474,0.30374 1.619289,1.80146 0.871473,1.07354 1.765795,2.38625 2.655102,3.89725 0.530121,0.9007 2.685405,5.19169 3.492006,6.95227 0.292819,0.63914 0.466283,1.02427 1.21305,2.69322 0.154137,0.34448 0.443504,0.97261 0.643044,1.39584 0.199541,0.42323 0.362786,0.80696 0.362786,0.85271 0,0.10123 1.975167,4.04056 2.421184,4.82898 0.175395,0.31004 0.442593,0.78918 0.593773,1.06477 0.48691,0.88758 1.15576,1.87336 1.414745,2.08514 0.220641,0.18043 0.319572,0.18587 0.792334,0.0435 0.297115,-0.0895 0.540215,-0.13119 0.540215,-0.0927 0,0.0384 0.108361,-0.0282 0.240803,-0.14813 0.132455,-0.11985 0.484766,-0.2441 0.782918,-0.27609 0.638303,-0.0685 1.494563,-0.29678 1.663237,-0.44345 0.06546,-0.057 0.23738,-0.10352 0.382053,-0.10352 0.144694,0 0.316616,-0.0448 0.382072,-0.0996 0.06546,-0.0548 0.344475,-0.1722 0.620061,-0.26081 0.602192,-0.19365 2.15559,-0.74591 2.505329,-0.8907 0.63664,-0.26355 1.932276,-0.72427 2.442685,-0.86861 0.310031,-0.0877 0.661582,-0.21028 0.781218,-0.27244 0.11963,-0.0622 0.327685,-0.11303 0.462348,-0.11303 0.134671,0 0.275666,-0.0498 0.313338,-0.1108 0.03773,-0.0608 0.224199,-0.14087 0.414511,-0.17759 0.19031,-0.0367 0.571492,-0.13012 0.847076,-0.20752 0.455686,-0.12802 1.882193,-0.43318 3.50745,-0.75033 1.225746,-0.23917 1.894397,-0.3075 3.068275,-0.3135 l 1.189269,-0.005 -0.04249,0.49696 c -0.115185,1.34664 -1.219829,3.23179 -2.424297,4.13721 -0.700838,0.52683 -1.255987,0.82537 -2.855501,1.53562 -0.738826,0.32808 -2.939782,0.90795 -5.323813,1.40262 -0.34448,0.0714 -0.85181,0.18124 -1.127393,0.24393 -0.275584,0.0626 -0.839281,0.17931 -1.252665,0.25916 -0.413376,0.0798 -0.948892,0.20587 -1.190028,0.28005 -0.810951,0.24947 -1.188627,0.37516 -1.440555,0.47944 -0.1378,0.057 -0.560573,0.21504 -0.939502,0.35112 -0.769499,0.27635 -1.753722,0.77857 -1.753722,0.89488 0,0.0417 0.29594,0.2298 0.657649,0.41792 0.361708,0.18815 0.9113,0.48905 1.221341,0.66865 0.310032,0.17959 0.732809,0.41979 0.939496,0.53377 0.412367,0.22736 1.225971,0.73223 2.004261,1.24368 0.971012,0.63808 3.013843,2.37828 3.645192,3.10517 1.103103,1.27005 2.286813,3.21758 2.845311,4.68136 0.06569,0.17224 0.163618,0.42593 0.217538,0.5637 0.05393,0.13779 0.134746,0.39145 0.179603,0.5637 0.04482,0.17224 0.13482,0.51046 0.199926,0.7516 0.235952,0.87377 0.379511,1.70849 0.441656,2.56796 0.0349,0.48228 0.08627,0.9463 0.114222,1.03118 0.06677,0.20285 1.537589,1.13453 2.565738,1.62531 1.20996,0.57755 2.119447,0.72126 3.446817,0.54463 0.87863,-0.1169 1.975038,-0.45827 2.305171,-0.71767 0.06336,-0.0497 -0.180371,-0.53434 -0.648252,-1.28911 -0.679069,-1.09542 -0.713182,-1.93551 -0.09345,-2.3016 0.425771,-0.25152 1.362419,-0.27037 1.917126,-0.0385 0.360013,0.15044 0.422841,0.25322 0.559681,0.91572 0.185454,0.89789 0.205328,3.97158 0.02778,4.30325 -0.06945,0.1298 -0.562711,0.44149 -1.096074,0.69259 -3.091631,1.45558 -4.60039,1.76427 -6.230939,1.27487 -0.482272,-0.14474 -0.905046,-0.30324 -0.939494,-0.35219 -0.03447,-0.049 -0.17538,-0.10869 -0.313171,-0.13284 -0.22238,-0.0389 -0.251177,0.0266 -0.25631,0.58249 -0.0089,0.96475 -0.206346,4.59613 -0.269023,4.94803 -0.03072,0.17223 -0.101802,0.65137 -0.158025,1.06475 -0.148712,1.09322 -0.254191,1.69651 -0.383286,2.19214 -0.06277,0.24115 -0.200252,0.80486 -0.305425,1.25267 -0.428467,1.82429 -1.249509,4.03561 -2.081269,5.6055 -0.490726,0.92622 -1.364119,2.40969 -1.493542,2.53681 -0.03505,0.0345 -0.257811,0.34448 -0.494983,0.68896 -0.593922,0.86264 -1.416582,1.84735 -2.384464,2.85414 -0.44937,0.46745 -0.834523,0.90039 -0.855891,0.96211 -0.03289,0.095 0.527145,1.06266 0.727355,1.25703 0.03547,0.0345 0.22268,0.2748 0.415989,0.53411 0.31665,0.42477 1.584665,1.47014 1.783255,1.47014 0.04399,0 0.229593,0.10466 0.412467,0.2327 0.386682,0.27063 1.830909,0.90324 2.900467,1.27049 0.241135,0.0828 0.551166,0.1982 0.68896,0.25644 0.137792,0.0582 0.588754,0.20049 1.002129,0.31615 0.413377,0.11562 0.864338,0.2549 1.002131,0.30946 0.137791,0.0546 0.363269,0.1268 0.501068,0.16058 0.667977,0.16366 2.822824,1.01371 3.554045,1.40199 0.452139,0.24008 0.89135,0.43652 0.976031,0.43652 0.386071,0 1.826309,-1.01695 2.757541,-1.94713 1.068788,-1.06753 2.367164,-2.92133 3.549441,-5.06779 2.24949,-4.08401 2.69888,-4.77281 4.06961,-6.2374 1.55313,-1.65949 2.79228,-2.22496 4.64382,-2.11913 1.37365,0.0785 1.99788,0.24445 3.27366,0.8703 1.17187,0.57489 1.30784,0.75723 1.00538,1.34819 -0.14211,0.2777 -0.25927,0.32028 -1.03411,0.37581 l -0.87386,0.0626 0.0328,0.43843 c 0.0181,0.24114 0.0961,0.59526 0.17346,0.78693 0.0774,0.19167 0.10389,0.38525 0.0591,0.43018 -0.0448,0.0448 -0.43301,-0.0351 -0.86242,-0.17756 -0.42938,-0.14254 -1.14118,-0.36332 -1.58177,-0.4906 -0.65325,-0.18873 -0.88346,-0.33003 -1.24787,-0.76598 -0.24576,-0.29402 -0.52399,-0.53457 -0.6183,-0.53457 -0.30797,0 -1.57611,0.91461 -2.30546,1.66276 -1.20218,1.23314 -2.08562,2.68526 -4.20885,6.91798 -1.53979,3.06962 -2.729884,4.76077 -4.013592,5.7034 -1.13125,0.83069 -1.89716,1.06096 -3.528821,1.06096 -1.280744,0 -1.341475,-0.013 -2.254793,-0.482 -0.516228,-0.26508 -1.164071,-0.64922 -1.439655,-0.85365 -1.682041,-1.2477 -2.082888,-1.5126 -2.877278,-1.90154 -1.256939,-0.61538 -1.459587,-0.68378 -2.310945,-0.78011 -0.693292,-0.0785 -0.761636,-0.0651 -0.758765,0.14918 0.0059,0.406 0.867935,2.87392 1.439378,4.11866 0.158148,0.34448 0.413125,0.90818 0.566617,1.25266 0.428736,0.96225 0.86327,1.92533 1.261471,2.79591 0.199151,0.4354 0.3621,0.81423 0.3621,0.84184 0,0.0277 0.149337,0.37597 0.33186,0.77415 0.355154,0.77481 1.125866,2.84043 1.310067,3.51119 0.06152,0.2239 0.164961,0.59031 0.229934,0.81422 0.586901,2.02256 1.03303,4.66028 1.064623,6.29463 l 0.0075,0.37578 1.252665,0.10133 c 1.196717,0.11015 1.397853,0.47537 -1.941626,0.52521 -8.672718,0.066 -12.559301,0.13236 -14.844044,0.25344 -1.732785,0.0918 -21.913032,0.21424 -21.993858,0.13343 z m 1.819412,-1.60131 c 0.596828,-0.36558 1.32162,-0.80926 1.610637,-0.98593 l 0.525497,-0.32125 0.04113,-1.93355 c 0.04421,-2.08112 -0.122594,-4.01128 -0.445135,-5.14964 -0.201353,-0.71067 -1.025099,-1.86055 -1.328127,-1.85399 -0.140602,0.002 -0.733493,1.13102 -1.150571,2.18896 -0.108643,0.27559 -0.249579,0.61381 -0.313214,0.7516 -0.250305,0.54212 -1.098485,3.18274 -1.307655,4.07115 -0.121672,0.51672 -0.271427,1.03738 -0.332811,1.15701 -0.06137,0.11963 -0.111608,0.32837 -0.111608,0.46385 0,0.13549 -0.05005,0.37583 -0.111163,0.53408 -0.220351,0.57038 -0.408693,1.59657 -0.319525,1.74084 0.0641,0.10373 0.397549,0.12577 1.124252,0.0744 0.972034,-0.0687 1.097391,-0.11221 2.118309,-0.73761 z m 16.456048,0.23069 c 0.08873,-1.07681 -1.071295,-2.75906 -4.024307,-5.8361 -2.513988,-2.61959 -3.584499,-3.95462 -4.123714,-5.14269 -0.203381,-0.44811 -0.421027,-0.91262 -0.483661,-1.03226 -0.145188,-0.27729 -0.149386,-2.1362 -0.0049,-2.29408 0.05974,-0.0654 0.141572,-0.29543 0.181758,-0.51106 l 0.07302,-0.39207 -1.010417,-0.0183 c -0.555729,-0.0107 -1.111616,-0.0726 -1.235325,-0.13873 -0.527337,-0.28222 -1.106555,-1.76554 -1.138974,-2.91682 -0.02531,-0.89655 -0.149375,-1.18305 -0.674142,-1.5561 -0.436145,-0.31004 -1.380241,-0.80794 -2.279324,-1.20208 -0.494677,-0.21685 -2.310568,-0.16511 -2.828343,0.0806 -0.256677,0.12179 -0.466681,0.26209 -0.466681,0.31177 0,0.0912 0.608464,1.03453 0.742093,1.15058 0.08,0.0695 1.735044,2.54778 1.965877,2.94374 0.78229,1.34203 1.551089,2.78555 1.551089,2.91243 0,0.0861 0.05635,0.15661 0.125259,0.15661 0.06885,0 0.12526,0.10144 0.12526,0.22547 0,0.12401 0.0513,0.27904 0.113825,0.34449 0.06264,0.0654 0.260934,0.56996 0.440769,1.12114 0.449227,1.37685 0.527407,1.65071 0.697284,2.44267 0.08127,0.37893 0.205843,0.91444 0.276788,1.19004 0.142579,0.55385 0.18704,5.35691 0.05343,5.7752 -0.08186,0.25622 -0.03744,0.26592 1.610716,0.35139 0.932177,0.0483 1.849356,0.13509 2.038181,0.19274 0.188835,0.0576 0.681553,0.17333 1.094928,0.25703 0.413376,0.0837 0.917225,0.21376 1.119675,0.28901 0.493931,0.18361 3.674392,0.16567 3.86186,-0.0219 0.07807,-0.0782 0.186934,-0.14185 0.242053,-0.14185 0.237767,0 0.06031,0.36303 -0.478404,0.97893 -0.318236,0.36377 -0.546898,0.69315 -0.508118,0.73193 0.06923,0.0693 2.34765,0.27407 2.715197,0.24404 0.123959,-0.0107 0.201372,-0.17885 0.227478,-0.49584 z m 5.506031,0.16938 c 0.05245,-0.48467 -0.385466,-1.06249 -1.055102,-1.39216 -0.520044,-0.25601 -0.791227,-0.29894 -1.888406,-0.29894 -1.226258,0 -1.29571,0.0146 -1.62086,0.33973 -0.323171,0.32319 -0.32927,0.35127 -0.125113,0.57685 0.1973,0.21803 0.914432,0.61599 1.523935,0.8457 0.423033,0.15944 1.462009,0.27518 2.317414,0.25817 0.77097,-0.0154 0.816034,-0.0328 0.848132,-0.32935 z m 3.500097,0.0941 c 0.18073,-0.23611 0.634055,-1.82608 0.723992,-2.53927 0.103245,-0.81867 -0.07621,-1.26395 -0.612242,-1.51958 l -0.431096,-0.20558 -1.138805,1.04434 c -0.626341,0.57439 -1.21915,1.16697 -1.317353,1.31685 -0.201309,0.30723 -0.394867,1.71217 -0.264846,1.92254 0.12496,0.2022 2.884212,0.18467 3.04035,-0.0193 z m 9.054529,0.0626 c -0.0017,-0.2448 -0.382836,-2.17936 -0.610498,-3.10033 -0.06811,-0.27559 -0.185964,-0.75473 -0.261855,-1.06477 -0.470502,-1.9221 -1.624553,-5.28553 -2.390382,-6.96661 -0.134193,-0.29458 -0.243991,-0.57053 -0.243991,-0.61324 0,-0.0902 -1.85858,-3.84072 -1.947282,-3.92942 -0.172274,-0.17227 -1.186624,1.80951 -1.420574,2.77543 -0.09914,0.40937 -0.138751,2.17096 -0.125337,5.57434 l 0.01962,4.97585 -0.392742,1.14588 c -0.216003,0.63022 -0.392733,1.17984 -0.392733,1.22135 0,0.0415 1.747465,0.0754 3.883247,0.0754 2.135793,0 3.882923,-0.0423 3.882532,-0.0941 z M 77.707548,275.3587 c 0.489221,-0.98262 0.682849,-1.83236 0.682849,-2.99673 0,-1.71642 -0.727553,-4.10083 -1.590669,-5.21311 -0.519522,-0.66948 -1.502135,-1.49315 -2.014956,-1.68899 -0.630215,-0.24068 -0.725161,-0.17495 -0.843216,0.58392 -0.03753,0.24114 -0.122894,0.61155 -0.189747,0.82314 -0.167141,0.52906 -0.153333,3.79846 0.01909,4.53018 0.238077,1.01007 0.493717,1.80668 0.764872,2.38354 0.292287,0.62182 1.740912,2.15917 2.034555,2.15917 0.105362,0 0.191561,0.0602 0.191561,0.13398 0,0.0737 0.126626,0.11595 0.281384,0.0941 0.202974,-0.029 0.388035,-0.25429 0.664235,-0.80903 z m -5.329929,-0.39917 c 0,-0.0569 -0.146913,-0.2401 -0.326468,-0.40713 -0.746786,-0.69464 -1.00581,-1.25219 -1.23392,-2.65586 -0.159992,-0.98455 -0.196057,-1.64585 -0.133181,-2.44269 0.04741,-0.60095 0.09038,-1.99692 0.09552,-3.10216 0.01367,-2.95397 -0.287406,-3.72276 -1.721497,-4.39581 -0.778361,-0.36531 -0.889521,-0.36693 -0.993262,-0.0146 -0.04568,0.15502 -0.173658,0.59189 -0.284488,0.97081 -0.261963,0.8957 -0.291811,4.37866 -0.04616,5.38645 0.378077,1.55101 0.794914,2.86383 1.153451,3.6327 0.725636,1.55617 1.806446,2.67953 2.872622,2.98573 0.562257,0.16146 0.617395,0.16527 0.617395,0.0424 z m 8.165094,-0.96134 c 0.07846,-0.17224 0.189202,-0.31317 0.246045,-0.31317 0.05684,0 0.282435,-0.35231 0.501311,-0.78291 0.375247,-0.73822 0.398011,-0.86153 0.398944,-2.16084 8.35e-4,-1.6042 -0.173551,-2.36287 -0.930446,-4.04022 -0.404512,-0.89645 -0.661315,-1.40732 -1.054557,-2.09782 -0.196188,-0.34448 -0.419036,-0.73907 -0.495218,-0.87688 -0.07621,-0.13777 -0.34786,-0.57194 -0.603722,-0.96477 -0.255867,-0.39285 -0.465209,-0.74319 -0.465209,-0.77856 0,-0.0354 -0.310031,-0.54487 -0.688962,-1.13226 -0.378929,-0.5874 -0.68897,-1.11796 -0.68897,-1.17905 0,-0.061 -0.07652,-0.17454 -0.169945,-0.25213 -0.140359,-0.11655 -0.18388,0.0718 -0.249821,1.08074 -0.08969,1.37283 0.02152,2.3169 0.424256,3.60184 0.27481,0.87669 0.379513,1.12886 1.248304,3.0064 1.403285,3.03262 1.906391,4.57692 2.07111,6.35726 0.0824,0.89075 0.220353,1.05148 0.45688,0.53237 z m -12.925201,-4.35644 c 0,-0.0191 -0.162389,-0.34776 -0.360844,-0.73028 -0.502659,-0.96879 -0.812845,-2.34581 -1.026961,-4.55877 -0.319581,-3.30289 -0.458759,-4.16695 -0.855861,-5.31343 -0.307782,-0.88861 -0.889715,-1.81443 -1.26756,-2.01665 -0.150617,-0.0806 -1.052743,-0.1175 -2.344013,-0.0957 -1.790318,0.03 -2.09268,0.0628 -2.055073,0.22313 0.680515,2.90032 1.559175,3.90053 4.546049,5.17489 l 0.456353,0.19472 -0.123378,0.57845 c -0.06789,0.31815 -0.33699,0.98427 -0.598088,1.48029 -0.636325,1.20882 -0.836312,1.8389 -0.625095,1.96943 0.08747,0.0542 0.845495,0.78018 1.684434,1.61357 1.460371,1.45069 1.547587,1.51525 2.047684,1.51525 0.287292,0 0.522353,-0.0157 0.522353,-0.0348 z m 15.21674,-6.13903 c 4.09e-4,-0.96317 -0.02612,-1.06733 -0.416706,-1.62781 -0.229508,-0.32935 -0.792637,-0.90466 -1.251405,-1.27851 -1.848238,-1.50613 -1.728759,-1.35905 -1.536344,-1.89115 0.09358,-0.25881 0.336658,-0.75296 0.540158,-1.09809 0.203499,-0.34515 0.456521,-0.84378 0.562269,-1.10807 0.188808,-0.47187 0.186313,-0.48521 -0.138517,-0.74072 -0.181932,-0.14311 -0.555992,-0.59183 -0.831251,-0.99717 -0.728075,-1.07214 -1.258181,-1.27441 -1.738769,-0.66344 -0.571139,0.7261 -0.209489,4.46549 0.646531,6.68485 0.339147,0.87931 0.929012,1.7993 1.580904,2.46569 0.922273,0.9428 2.178526,1.6567 2.459127,1.39747 0.06787,-0.0626 0.123695,-0.5771 0.124003,-1.14305 z m -8.824388,-1.43613 c 0.0021,-0.18945 0.147389,-0.85181 0.32288,-1.47188 0.175492,-0.62007 0.347279,-1.24272 0.381733,-1.3837 0.04781,-0.19557 -0.1842,-0.49987 -0.978909,-1.28397 -0.932548,-0.92011 -1.090885,-1.02768 -1.51291,-1.02768 h -0.471364 v 1.80106 c 0,1.36119 0.04878,1.91953 0.199549,2.28611 0.262331,0.63766 0.779399,1.174 1.131788,1.174 0.155282,0 0.317168,0.0564 0.359748,0.12527 0.04257,0.0688 0.186828,0.12527 0.320564,0.12527 0.180805,0 0.244099,-0.0883 0.246921,-0.34448 z m -6.511822,-2.85278 c 0.455189,-0.23541 0.745788,-0.89407 0.745788,-1.69038 v -0.598 l -1.315279,0.012 c -0.978705,0.008 -1.3153,0.053 -1.3153,0.17234 0,0.18035 0.285149,0.96461 0.640816,1.7625 0.266569,0.59796 0.581041,0.6843 1.243975,0.34148 z m 9.072783,-2.4084 c 0.130021,-1.14945 0.09077,-1.79094 -0.130166,-2.12816 -0.226326,-0.34543 -0.388821,-0.36076 -0.488675,-0.0462 -0.07942,0.25 -0.412183,0.41503 -1.288253,0.63876 -0.292819,0.0749 -0.532381,0.15962 -0.532381,0.18854 0,0.0798 2.181072,2.18506 2.267988,2.18904 0.0417,0.002 0.118879,-0.37699 0.171487,-0.84204 z m -11.897063,-1.22689 c 1.767395,-0.17288 2.240533,-0.23788 3.945867,-0.54215 1.074087,-0.19164 3.32526,-0.84649 4.321693,-1.25714 0.13778,-0.0568 0.391459,-0.15948 0.563693,-0.22818 0.708899,-0.28276 2.821505,-1.34413 2.860247,-1.43699 0.02298,-0.055 0.100909,-0.10019 0.173204,-0.10019 0.168295,0 2.221149,-1.38312 3.04109,-2.04894 1.277881,-1.03769 2.304901,-2.11883 3.348934,-3.52541 0.05117,-0.0688 0.23475,-0.3025 0.408032,-0.51915 0.173276,-0.21663 0.31505,-0.42519 0.31505,-0.46346 0,-0.0383 0.162316,-0.312 0.36069,-0.60826 0.361265,-0.53949 1.518306,-2.75223 1.518306,-2.90359 0,-0.0443 0.109475,-0.31944 0.243273,-0.61149 0.338127,-0.73808 0.884121,-2.4711 0.884121,-2.80626 0,-0.15287 0.04891,-0.30815 0.108652,-0.34509 0.05976,-0.0369 0.14311,-0.308 0.185221,-0.60241 0.04206,-0.29439 0.135388,-0.84527 0.207279,-1.22422 0.323805,-1.70668 0.451363,-7.36515 0.172332,-7.64417 -0.219065,-0.21907 -1.847335,-0.30089 -2.515963,-0.12645 -0.998807,0.26059 -1.397224,0.49178 -2.069141,1.2007 -0.637967,0.67307 -1.725354,2.34118 -1.725354,2.64676 0,0.38555 -0.458958,0.53189 -3.319547,1.05838 -0.344487,0.0634 -1.250328,0.14873 -2.012979,0.18963 -1.282541,0.0687 -1.510165,0.0438 -3.032315,-0.33375 -1.428196,-0.35418 -1.695132,-0.38765 -2.019874,-0.25313 -0.522236,0.21631 -2.146558,1.80929 -2.76823,2.71478 -0.103349,0.15053 -0.526116,0.77183 -0.939491,1.38067 -0.413375,0.60883 -0.794313,1.16362 -0.846513,1.23287 -0.05217,0.0692 -0.517484,0.7001 -1.033991,1.40192 -0.934505,1.26981 -1.548576,1.86218 -2.503815,2.41534 -0.597236,0.34584 -2.044882,0.41203 -2.567963,0.11741 -1.1272,-0.63489 -2.505317,-1.94952 -2.505317,-2.38989 0,-0.19207 1.149649,-1.32774 1.595444,-1.57603 0.154089,-0.0859 0.449322,-0.15604 0.656078,-0.15604 0.30204,0 0.437782,0.098 0.690667,0.49858 0.173097,0.27422 0.314724,0.55682 0.314724,0.62803 0,0.0711 0.05168,0.22733 0.11474,0.34697 0.06313,0.11963 0.206677,0.42891 0.319039,0.68724 0.207339,0.47673 0.443088,0.62579 0.443088,0.28018 0,-0.10423 0.05313,-0.28749 0.118093,-0.40713 0.06497,-0.11962 0.327419,-0.7812 0.583263,-1.47017 0.405568,-1.09216 1.438201,-3.31969 1.94754,-4.20108 0.340267,-0.58883 1.310857,-1.96558 1.855348,-2.63175 1.010611,-1.23646 2.509382,-2.27909 4.327018,-3.01016 0.721526,-0.29018 2.078058,-0.40445 2.975151,-0.25063 0.499457,0.0855 1.005975,0.20743 1.12562,0.27062 0.119635,0.0632 0.32769,0.11491 0.462356,0.11491 0.134657,0 0.27967,0.0563 0.32226,0.12524 0.04257,0.0688 0.178166,0.12528 0.301303,0.12528 0.123145,0 0.387581,0.0807 0.587626,0.17939 0.200044,0.0987 0.510415,0.21544 0.689698,0.25946 0.286128,0.0703 0.353447,0.0217 0.550747,-0.39859 0.670258,-1.42735 1.839378,-2.63987 3.209276,-3.32849 1.172534,-0.58939 1.898479,-0.73736 3.964681,-0.80813 l 1.662092,-0.057 -0.06385,-0.71056 c -0.09082,-1.01019 -0.197498,-1.7183 -0.39957,-2.65214 -0.09689,-0.44784 -0.210026,-0.99881 -0.251377,-1.22439 -0.04131,-0.22559 -0.123962,-0.44031 -0.183566,-0.47715 -0.0596,-0.0368 -0.108386,-0.19331 -0.108386,-0.3477 0,-0.15439 -0.049,-0.33427 -0.108793,-0.39972 -0.05986,-0.0655 -0.210846,-0.40085 -0.335574,-0.74532 -0.12473,-0.34449 -0.32944,-0.77597 -0.454912,-0.95884 -0.125462,-0.18287 -0.230426,-0.38018 -0.233248,-0.43843 -0.0026,-0.0582 -0.157832,-0.30867 -0.34448,-0.55645 -0.186646,-0.24778 -0.513955,-0.68123 -0.727363,-0.96324 -0.920079,-1.21579 -3.893549,-3.28373 -4.721678,-3.28373 -0.109637,0 -0.234174,-0.0563 -0.276752,-0.12526 -0.04257,-0.0688 -0.211693,-0.12526 -0.375799,-0.12526 -0.164109,0 -0.329368,-0.0502 -0.367245,-0.11139 -0.07205,-0.11667 -0.151404,-0.13347 -2.07545,-0.44109 -1.820371,-0.29106 -4.204103,-0.21976 -5.887509,0.17607 -0.241144,0.0568 -0.748466,0.16903 -1.127397,0.24964 -1.249705,0.26582 -3.240942,0.84122 -4.008511,1.15834 -0.606097,0.25039 -0.825448,0.33317 -2.066893,0.77975 -0.688963,0.24784 -1.365396,0.50068 -1.503193,0.56186 -0.137799,0.0612 -0.814233,0.32384 -1.503193,0.5837 -0.688972,0.25982 -1.306213,0.51819 -1.371668,0.57415 -0.06546,0.056 -0.19289,0.10164 -0.283209,0.10164 -0.09028,0 -0.431355,0.11835 -0.757862,0.26302 -0.326507,0.14466 -0.706388,0.30981 -0.844176,0.36701 -0.137798,0.0572 -0.616939,0.2561 -1.064769,0.44199 -1.936292,0.80369 -2.277762,0.95515 -3.945886,1.75028 -1.272243,0.60643 -2.481598,1.20035 -3.570077,1.75331 -1.418653,0.72067 -3.280626,1.94521 -4.265654,2.80533 -1.61475,1.40997 -3.379731,4.96979 -3.886568,7.83889 -0.574068,3.24961 -0.612334,6.14985 -0.110729,8.39283 0.06158,0.27558 0.203703,0.92384 0.315724,1.44056 0.112019,0.51672 0.249191,1.05224 0.304824,1.19002 0.05557,0.1378 0.172302,0.44784 0.259257,0.68898 0.625135,1.73347 1.988182,4.10403 2.989105,5.19854 0.426184,0.46603 0.767839,0.66487 0.645799,0.37579 -0.07922,-0.18766 -0.36101,-3.28364 -0.575737,-6.32593 -0.11489,-1.62765 -0.419978,-4.19748 -0.669238,-5.63698 -0.344688,-1.99063 -0.431692,-2.40247 -0.713329,-3.37676 -0.168424,-0.58266 -0.304631,-1.11817 -0.302682,-1.19004 0.0021,-0.0719 0.232753,-0.38435 0.512878,-0.69437 0.280125,-0.31004 0.630847,-0.74082 0.77936,-0.9573 0.79599,-1.16019 2.281738,-3.25792 2.394655,-3.38103 0.07157,-0.0782 0.493094,-0.61357 0.936657,-1.19004 0.682562,-0.88704 1.121732,-1.32831 2.54692,-2.55906 0.489606,-0.42281 1.955928,-1.1448 3.097801,-1.52531 1.267161,-0.42226 1.397805,-0.44027 3.570089,-0.4924 2.883859,-0.0691 2.871505,-0.0665 2.761151,-0.57981 -0.04741,-0.22062 -0.133455,-0.68296 -0.191172,-1.02744 -0.0577,-0.34448 -0.144538,-0.7525 -0.192956,-0.90667 -0.106876,-0.34033 0.224733,-0.52453 0.469551,-0.26082 0.506769,0.54585 1.493281,2.45373 2.158205,4.17388 0.186419,0.48227 0.390837,0.97473 0.454247,1.09437 0.06342,0.11965 0.115314,0.3036 0.115314,0.40883 0,0.10518 0.0513,0.28918 0.113941,0.40882 0.550757,1.05138 0.952263,4.11668 0.848872,6.48081 -0.07961,1.82181 -0.268928,2.60279 -0.925867,3.82061 -0.411951,0.7637 -1.585484,2.12953 -1.829691,2.12953 -0.0606,0 -0.259829,0.10637 -0.442709,0.23642 -0.182881,0.13004 -0.783462,0.39599 -1.334624,0.591 -0.917092,0.32449 -1.145646,0.35394 -2.693233,0.34708 -2.081596,-0.009 -2.898319,-0.25705 -4.890856,-1.48398 -0.85842,-0.52858 -1.181873,-0.7683 -3.123295,-2.31488 -1.684871,-1.34224 -2.79033,-2.13576 -2.975258,-2.13576 -0.08758,0 -0.159277,-0.0564 -0.159277,-0.12526 0,-0.0688 -0.08456,-0.12527 -0.187894,-0.12527 -0.129265,0 -0.186703,0.12705 -0.184064,0.40712 0.0059,0.61336 0.243458,3.3113 0.366935,4.1651 0.226306,1.56484 0.500543,3.41369 0.631747,4.25904 0.664292,4.28007 0.728518,6.14946 0.303438,8.83126 l -0.06953,0.43844 1.41358,0.93951 c 0.77747,0.51671 1.471628,0.96767 1.542604,1.0021 0.07099,0.0345 0.467252,0.28462 0.880637,0.55591 1.120617,0.73546 3.653998,1.99636 4.509579,2.24447 2.087268,0.60529 3.121539,0.79051 5.636972,1.00945 2.550546,0.222 4.283855,0.2234 6.513839,0.004 z m 6.499991,-14.8091 c -0.07652,-0.0507 -0.241832,-0.28931 -0.367382,-0.53045 -0.315345,-0.60567 -0.43846,-3.99462 -0.153701,-4.23095 0.194799,-0.16168 2.117166,-0.80503 2.189459,-0.73273 0.02348,0.0235 -0.04325,0.37256 -0.148301,0.77576 -0.105018,0.40322 -0.19094,0.92102 -0.19094,1.15069 0,0.34688 0.513685,1.94551 1.008013,3.13707 0.06565,0.15826 0.119382,0.34147 0.119382,0.40711 0,0.13936 -2.248893,0.16089 -2.45653,0.0237 z m 4.095669,-0.63914 c -0.151926,-0.10248 -0.148136,-0.22171 0.02657,-0.83584 0.360622,-1.26767 0.635462,-1.42166 2.749925,-1.54085 1.796312,-0.10134 1.833923,-0.0393 0.688968,1.13507 -0.625164,0.64122 -0.921744,0.84552 -1.47188,1.01393 -0.90619,0.27739 -1.773019,0.37637 -1.993573,0.22769 z m -0.762273,-2.44001 c 0,-0.78867 0.297754,-1.29273 0.935166,-1.58311 1.239748,-0.56477 1.659882,-0.64577 3.049988,-0.58807 2.113388,0.0877 2.591738,0.28249 2.080735,0.84714 -0.485118,0.53605 -1.577278,0.83676 -3.106428,0.85536 -0.926671,0.0117 -1.218531,0.0671 -1.753722,0.33531 -0.353127,0.17698 -0.731038,0.40191 -0.839812,0.49981 -0.307879,0.27712 -0.365927,0.21899 -0.365927,-0.36644 z m 9.207058,-0.19925 c -0.837895,-0.59651 -1.476473,-2.11589 -1.643795,-3.91116 l -0.05442,-0.58371 0.786461,-0.0496 c 0.450027,-0.0283 0.848028,0.007 0.930363,0.0827 0.294473,0.27066 0.670337,2.2712 0.670337,3.56794 0,0.69398 -0.04231,1.25926 -0.09395,1.2562 -0.05167,-0.002 -0.31943,-0.16611 -0.595014,-0.3623 z m -11.461856,-9.63803 c -1.219296,-0.53115 -1.848116,-0.91571 -3.249826,-1.98757 l -0.807142,-0.6172 0.03432,-1.27821 c 0.05343,-1.98859 -0.131795,-2.44175 -1.567815,-3.83624 -0.638526,-0.62009 -1.445629,-1.37485 -1.793567,-1.6773 -0.819836,-0.71266 -1.332997,-1.49874 -1.506985,-2.30849 -0.131436,-0.61169 -0.122912,-0.66173 0.148049,-0.86925 0.158123,-0.12109 0.428424,-0.33172 0.600668,-0.46806 0.428348,-0.33906 0.58843,-0.31551 0.974537,0.14335 0.692045,0.82244 2.058167,1.47293 3.92235,1.86765 0.482322,0.10206 1.457615,0.12421 3.131646,0.0709 2.309529,-0.0735 3.119435,-0.14093 5.437576,-0.45254 2.07551,-0.27897 3.008119,-0.35056 3.125094,-0.23984 0.07462,0.0706 0.06261,0.56566 -0.03256,1.334 -0.08313,0.6719 -0.150696,1.93604 -0.150029,2.8092 8.35e-4,1.48256 -0.04933,1.93282 -0.397743,3.54834 -0.369612,1.71385 -1.502871,3.26713 -2.85797,3.91716 -0.628149,0.30134 -0.843739,0.33353 -2.442683,0.36464 -1.687313,0.0328 -1.784569,0.0207 -2.567962,-0.32055 z m 2.943751,-1.41413 c 2.044902,-0.55316 3.932826,-2.30548 3.943134,-3.65998 0.0033,-0.49335 -0.225785,-1.21906 -0.501002,-1.58393 l -0.228008,-0.30226 -0.147748,0.37212 c -0.381765,0.96154 -0.631772,1.43692 -0.755701,1.43692 -0.07447,0 -0.470357,-0.29596 -0.879873,-0.65766 -1.372357,-1.21213 -2.091302,-1.38997 -2.928749,-0.72445 -0.257201,0.2044 -0.983662,0.61774 -1.614373,0.91853 -0.725607,0.34608 -1.293721,0.71435 -1.547014,1.00288 -0.368622,0.41991 -0.66208,1.12525 -0.663768,1.59544 -8.04e-4,0.27056 0.96482,1.16133 1.56512,1.44351 0.815734,0.38345 2.642252,0.46065 3.757982,0.15888 z M 70.17156,222.3572 c 0.46958,-0.89656 2.082565,-1.77639 3.834521,-2.0916 0.581168,-0.10455 1.519175,-0.32665 1.753733,-0.41519 0.103329,-0.039 0.437637,-0.16268 0.742898,-0.27483 0.884196,-0.32485 0.775043,-0.47246 -0.423228,-0.57228 -1.149505,-0.0956 -2.949588,0.003 -3.764499,0.20956 -1.825258,0.4594 -3.069466,1.68128 -2.713741,2.66503 0.08021,0.22172 0.145789,0.49779 0.145789,0.61348 0,0.32121 0.22291,0.25076 0.424527,-0.13417 z m -15.769628,14.00412 c 1.148554,-0.48316 1.74318,-0.82934 2.484177,-1.44623 0.673786,-0.56092 1.654558,-1.71542 2.068505,-2.4349 0.486774,-0.84609 0.634988,-1.1463 0.962396,-1.94942 0.321106,-0.78765 0.357615,-1.0234 0.358906,-2.31741 8.32e-4,-1.33689 -0.02443,-1.49258 -0.358606,-2.16341 -0.33475,-0.67213 -0.643434,-1.07077 -0.739329,-0.95478 -0.02241,0.027 -0.246465,0.42968 -0.498033,0.89472 -0.251575,0.46503 -0.663488,1.22604 -0.915364,1.6911 -0.251876,0.46504 -0.555314,0.98646 -0.674299,1.15872 -0.244682,0.35418 -0.694295,1.13132 -0.978376,1.69106 -0.10489,0.20671 -0.368981,0.65766 -0.58684,1.00214 -0.381714,0.60356 -1.44722,2.66444 -1.845806,3.57009 -0.310294,0.70505 -0.592631,1.40385 -0.592631,1.46686 0,0.0806 1.008138,-0.0793 1.3153,-0.20854 z m -1.471609,-1.87282 c 1.370971,-1.60412 2.521911,-3.52925 3.826435,-6.40041 0.722503,-1.59015 0.982265,-2.16561 1.300558,-2.88111 0.168558,-0.37893 0.363154,-0.79311 0.43243,-0.92038 0.233239,-0.4285 -0.01,-0.37441 -0.459476,0.10227 -0.682037,0.72316 -1.826374,2.27201 -2.501787,3.38615 -0.491778,0.8112 -4.195572,8.02865 -4.195572,8.17576 0,0.12956 1.088743,-0.86705 1.597412,-1.4622 z m -2.099857,0.67881 c 0.08495,-0.10248 0.362562,-0.59566 0.616795,-1.09609 0.254243,-0.5004 0.677626,-1.27625 0.940877,-1.72408 0.263233,-0.44784 0.576697,-0.98334 0.696575,-1.19003 0.119878,-0.20668 0.535764,-0.89551 0.924178,-1.53074 0.388414,-0.63522 0.706203,-1.19021 0.706203,-1.23333 0,-0.0431 0.102207,-0.228 0.227092,-0.41089 0.196049,-0.28705 0.423469,-0.78009 1.048952,-2.27412 0.07214,-0.17224 0.172631,-0.39778 0.223358,-0.5012 0.05072,-0.10342 0.225036,-0.71291 0.38732,-1.35437 0.254454,-1.0058 0.269922,-1.18227 0.112357,-1.28196 -0.438966,-0.27773 -1.554782,-0.49517 -2.541023,-0.49517 h -1.067087 l -0.149764,0.46974 c -0.158096,0.49582 -0.300141,0.84804 -0.73195,1.815 -0.145819,0.32649 -0.265114,0.62632 -0.265114,0.66625 0,0.0943 -1.248242,2.58471 -2.256623,4.50234 -1.411659,2.68458 -1.873453,3.62898 -1.875315,3.83529 -8.44e-4,0.11138 0.218858,0.3486 0.488597,0.5271 0.269739,0.17851 0.704449,0.5806 0.966022,0.89353 0.40552,0.48513 0.543242,0.56895 0.934779,0.56895 0.253534,0 0.528433,-0.0834 0.613768,-0.18622 z m 7.730682,-0.46451 c 0.695681,-0.29715 1.378049,-0.96204 1.734025,-1.68962 0.410709,-0.83946 0.539866,-1.86505 0.278692,-2.21291 -0.161829,-0.21554 -0.195023,-0.19168 -0.479464,0.34449 -0.168071,0.31684 -0.347965,0.57605 -0.399759,0.57605 -0.05179,0 -0.09417,0.0739 -0.09417,0.16428 0,0.0903 -0.10148,0.27355 -0.225501,0.40711 -0.124018,0.13357 -0.335399,0.44014 -0.469736,0.68125 -0.134345,0.24117 -0.272444,0.46663 -0.306899,0.50109 -0.113613,0.11361 -0.626317,1.14873 -0.626317,1.26451 0,0.15314 0.170245,0.14266 0.589119,-0.036 z m -10.147221,-6.23892 c 0.943011,-1.44327 1.754012,-3.00722 2.046154,-3.94587 0.08572,-0.27559 0.214648,-0.62903 0.286378,-0.78546 0.534863,-1.16614 -1.951865,0.32866 -3.149051,1.89297 -0.311108,0.40649 -0.772048,1.54083 -0.902593,2.22122 -0.1326,0.69107 -0.08708,1.29406 0.163796,2.16821 l 0.139554,0.48626 0.237262,-0.29839 c 0.130488,-0.16408 0.660812,-0.94661 1.1785,-1.73894 z"
       style="fill:#000000;fill-opacity:1;stroke-width:0.12526613"
       sodipodi:nodetypes="cccccccscscccccccccccccccccccscccccccccscsccccccsccccccssscccccccccccccccscccccccccccccccccccsccccscccscccccsccccccccsccccccscccccccccccccccccccccccccccccccccccscccccccsccccccccccccccscscsccccccccsccccccccccccccccccccsccccccscccccccccccsccsssccccccccccscccccccsccccccccccccccccccsccccssscccsccccccsscccccccccccccccccsccccccscsccccccsccccccccccccssscccccccscccccccccscscscsccsccscccccccsccccccccscccscscsccccccsccccccccccscscsccscccccccscsccccccccccsccccccscscccccccccsscccccccccccccscccccccccccccccscccscccccssscccccccccccccccccscscccccccccscsccccscccccscccccccccccccccccccccccccccccsccccccccccccccsccccccccccccccscccccccscccccccscccccscccsccccsccccccsscccsccccccccccc" />
  </g>
</svg>
