<?xml version="1.0" encoding="UTF-8" standalone="no"?>
<svg
   width="896"
   height="64"
   viewBox="0 0 237.06664 16.933332"
>
    <path
       id="first"
       d="M 1.0583334,2.1166668 V 14.816668 H 3.1749996 V 8.4666672 2.1166668 Z M 3.1749996,8.4666672 9.5249989,14.816668 V 11.006564 H 15.874998 V 5.9267704 H 9.5249989 V 2.1166668 Z" />
    <path
       d="m 19.049998,8.4666636 6.349999,-6.3499982 v 3.8099995 h 6.350001 v 5.0799981 h -6.350001 v 3.809999 z"
       id="previous" />
    <path
       d="M 48.683332,8.4666636 42.333331,2.1166655 V 5.9266649 H 35.98333 v 5.0799981 h 6.350001 v 3.809999 z"
       id="next" />
    <path
       id="last"
       d="m 58.208334,2.116666 v 3.810103 h -6.349999 v 5.079794 h 6.349999 v 3.810103 l 6.349999,-6.3500005 z m 6.349999,6.3499995 V 14.816666 H 66.675 v -12.7 h -2.116667 z" />
    <path
       id="fit-best"
       d="M 69.849477 0.7927164 C 69.121158 0.7927164 68.527594 1.3888665 68.527594 2.1171832 L 68.527594 14.816148 C 68.527594 15.544467 69.121158 16.138548 69.849477 16.138548 L 82.551026 16.138548 C 83.279342 16.138548 83.872909 15.544467 83.872909 14.816148 L 83.872909 2.1171832 C 83.872909 1.3888665 83.279342 0.7927164 82.551026 0.7927164 L 69.849477 0.7927164 z M 69.849477 1.3223998 L 82.551026 1.3223998 C 82.995337 1.3223998 83.343742 1.6728707 83.343742 2.1171832 L 83.343742 8.4666659 L 83.343742 14.816148 C 83.343742 15.260462 82.995337 15.611449 82.551026 15.611449 L 69.849477 15.611449 C 69.405163 15.611449 69.05676 15.260462 69.05676 14.816148 L 69.05676 8.4671826 L 72.76041 11.641666 L 72.76041 5.2916662 L 69.05676 8.4661491 L 69.05676 2.1171832 C 69.05676 1.6728707 69.405163 1.3223998 69.849477 1.3223998 z M 83.343742 8.4666659 L 79.639576 5.2916662 L 79.639576 11.641666 L 83.343742 8.4666659 z M 76.199993 1.3229165 L 73.024993 5.0270829 L 79.374992 5.0270829 L 76.199993 1.3229165 z M 73.024993 11.906249 L 76.199993 15.610415 L 79.374992 11.906249 L 73.024993 11.906249 z " />
    <path
       id="fit-width"
       d="M 86.782808 0.7927164 C 86.05449 0.7927164 85.460925 1.3888657 85.460925 2.1171832 L 85.460925 14.816148 C 85.460925 15.544467 86.05449 16.138548 86.782808 16.138548 L 99.484357 16.138548 C 100.21268 16.138548 100.80624 15.544467 100.80624 14.816148 L 100.80624 2.1171832 C 100.80624 1.3888657 100.21268 0.7927164 99.484357 0.7927164 L 86.782808 0.7927164 z M 86.782808 1.3223998 L 99.484357 1.3223998 C 99.92867 1.3223998 100.27707 1.6728702 100.27707 2.1171832 L 100.27707 8.4666659 L 100.27707 14.816148 C 100.27707 15.260462 99.92867 15.611449 99.484357 15.611449 L 86.782808 15.611449 C 86.338495 15.611449 85.990092 15.260462 85.990092 14.816148 L 85.990092 8.4671826 L 89.693741 11.641666 L 89.693741 5.2916662 L 85.990092 8.4661491 L 85.990092 2.1171832 C 85.990092 1.6728702 86.338495 1.3223998 86.782808 1.3223998 z M 100.27707 8.4666659 L 96.572907 5.2916662 L 96.572907 11.641666 L 100.27707 8.4666659 z " />
    <path
       id="fit-height"
       d="M 103.71614 0.7927164 C 102.98782 0.7927164 102.39426 1.3888657 102.39426 2.1171832 L 102.39426 14.816148 C 102.39426 15.544467 102.98782 16.138548 103.71614 16.138548 L 116.41769 16.138548 C 117.14601 16.138548 117.73957 15.544467 117.73957 14.816148 L 117.73957 2.1171832 C 117.73957 1.3888657 117.14601 0.7927164 116.41769 0.7927164 L 103.71614 0.7927164 z M 103.71614 1.3223998 L 116.41769 1.3223998 C 116.86201 1.3223998 117.21041 1.6728702 117.21041 2.1171832 L 117.21041 14.816148 C 117.21041 15.260462 116.86201 15.611449 116.41769 15.611449 L 103.71614 15.611449 C 103.27183 15.611449 102.92342 15.260462 102.92342 14.816148 L 102.92342 2.1171832 C 102.92342 1.6728702 103.27183 1.3223998 103.71614 1.3223998 z M 110.06666 1.3229165 L 106.89166 5.0270829 L 113.24166 5.0270829 L 110.06666 1.3229165 z M 106.89166 11.906249 L 110.06666 15.610415 L 113.24166 11.906249 L 106.89166 11.906249 z " />
    <path
       id="double-page"
       d="M 138.11352 1.05885 C 137.2432 1.05885 136.5255 1.7760301 136.5255 2.6463498 L 136.5255 14.286982 C 136.5255 15.157302 137.2432 15.874998 138.11352 15.874998 L 149.75415 15.874998 C 150.62447 15.874998 151.34165 15.157302 151.34165 14.286982 L 151.34165 2.6463498 C 151.34165 1.7760301 150.62447 1.0588501 149.75415 1.05885 L 138.11352 1.05885 z M 138.11352 2.1171832 L 143.40415 2.1171832 L 143.40415 14.816148 L 138.11352 14.816148 C 137.81121 14.816148 137.58384 14.589295 137.58384 14.286982 L 137.58384 2.6463498 C 137.58384 2.3440376 137.81121 2.1171832 138.11352 2.1171832 z M 144.463 2.1171832 L 149.75415 2.1171832 C 150.05646 2.1171832 150.28332 2.3440376 150.28332 2.6463498 L 150.28332 14.286982 C 150.28332 14.589295 150.05646 14.816148 149.75415 14.816148 L 144.463 14.816148 L 144.463 2.1171832 z " />
    <path
       d="m 158.48633,1.0585937 c -0.87032,0 -1.58789,0.7175701 -1.58789,1.5878907 V 14.287109 c 0,0.870321 0.71757,1.587891 1.58789,1.587891 h 4.76172 c 0.87032,0 1.58789,-0.71757 1.58789,-1.587891 V 2.6464844 c 0,-0.8703206 -0.71757,-1.5878906 -1.58789,-1.5878907 z m 0,1.0585938 h 4.76172 c 0.30231,0 0.52929,0.2269844 0.52929,0.5292969 V 14.287109 c 0,0.302313 -0.22698,0.529297 -0.52929,0.529297 h -4.76172 c -0.30231,0 -0.5293,-0.226984 -0.5293,-0.529297 V 2.6464844 c 0,-0.3023125 0.22699,-0.5292969 0.5293,-0.5292969 z"
       id="single-page" />
    <path
       id="fullscreen"
       d="M 120.64947 0.7927164 C 119.92116 0.7927164 119.32759 1.3888657 119.32759 2.1171832 L 119.32759 14.816148 C 119.32759 15.544467 119.92116 16.138548 120.64947 16.138548 L 133.35102 16.138548 C 134.07934 16.138548 134.6729 15.544467 134.6729 14.816148 L 134.6729 2.1171832 C 134.6729 1.3888657 134.07934 0.7927164 133.35102 0.7927164 L 120.64947 0.7927164 z M 120.64947 1.3223998 L 133.35102 1.3223998 C 133.79534 1.3223998 134.14374 1.6728702 134.14374 2.1171832 L 134.14374 14.816148 C 134.14374 15.260462 133.79534 15.611449 133.35102 15.611449 L 120.64947 15.611449 C 120.20516 15.611449 119.85676 15.260462 119.85676 14.816148 L 119.85676 2.1171832 C 119.85676 1.6728702 120.20516 1.3223998 120.64947 1.3223998 z M 120.33476 1.8009235 L 120.7089 6.6657424 L 125.19906 2.1755776 L 120.33476 1.8009235 z M 133.66573 1.8009235 L 128.80143 2.1755776 L 133.29108 6.6657424 L 133.66573 1.8009235 z M 120.7089 10.267589 L 120.33476 15.132408 L 125.19906 14.757754 L 120.7089 10.267589 z M 133.29108 10.268106 L 128.80143 14.757754 L 133.66573 15.131891 L 133.29108 10.268106 z " />
    <path
       id="rotation-cw"
       d="M 193.58403 2.1177 C 191.96348 2.1421911 190.37572 2.7861064 189.18533 3.9765011 C 187.3714 5.7904359 186.82698 8.5264717 187.80867 10.896491 C 188.79037 13.266512 191.11073 14.816148 193.67602 14.816148 L 193.67602 12.698965 C 191.96076 12.698965 190.41999 11.670381 189.76359 10.085688 C 189.10719 8.5009953 189.46901 6.6854048 190.68188 5.4725337 C 191.89475 4.2596626 193.71035 3.8983591 195.29504 4.5547603 C 196.87942 5.2110292 197.9079 6.7507897 197.90831 8.4656323 L 195.79268 8.4656323 L 198.96768 12.169799 L 202.14268 8.4656323 L 200.0255 8.4656323 C 200.02508 5.9007526 198.47502 3.5814034 196.10532 2.5998411 C 195.29063 2.2623835 194.43289 2.1048713 193.58403 2.1177 z " />
    <path
       id="rotation-ccw"
       d="m 178.94927,2.1177 c -0.84886,-0.012829 -1.7066,0.1446836 -2.5213,0.4821411 -2.36969,0.9815622 -3.91975,3.3009113 -3.92017,5.8657912 h -2.11615 l 3.175,3.7041667 3.175,-3.7041667 h -2.11667 c 4.2e-4,-1.7148427 1.02891,-3.2546031 2.61328,-3.910872 1.5847,-0.6564011 3.40029,-0.2950978 4.61315,0.9177734 1.21287,1.2128712 1.57469,3.0284616 0.9183,4.6131543 -0.6564,1.584693 -2.19717,2.613277 -3.91243,2.613277 v 2.117183 c 2.5653,0 4.88565,-1.549636 5.86734,-3.919657 0.98169,-2.3700192 0.43676,-5.106055 -1.37717,-6.9199899 -1.1904,-1.1903948 -2.77763,-1.83431 -4.39818,-1.8588011 z" />
    <path
       id="manga-mode"
       d="m 205.84581,1.05885 c -0.87032,0 -1.58801,0.7171819 -1.58801,1.5874998 V 14.286982 c 0,0.870318 0.71769,1.588016 1.58801,1.588016 h 11.6427 c 0.87032,0 1.58595,-0.717698 1.58595,-1.588016 V 2.6463498 c 0,-0.8703179 -0.71563,-1.5874997 -1.58595,-1.5874998 z m 0,1.0583332 h 11.6427 c 0.30231,0 0.52917,0.226855 0.52917,0.5291666 V 14.286982 c 0,0.302313 -0.22686,0.529166 -0.52917,0.529166 h -5.29321 v -2.116149 h -1.05782 V 9.5249991 h 3.70417 V 7.4083326 h -3.70417 V 4.2333329 h 1.05782 V 2.1249347 h -1.05834 v 5.2833979 h -0.52865 V 5.2916662 l -3.70416,3.1749997 3.70416,3.1750001 V 9.5249991 h 0.52865 v 5.2911489 h -5.29115 c -0.30231,0 -0.52916,-0.226853 -0.52916,-0.529166 V 2.6463498 c 0,-0.3023116 0.22685,-0.5291666 0.52916,-0.5291666 z" />
    <path
       id="comic-mode"
       d="m 234.41979,15.874998 c 0.87032,0 1.58801,-0.717182 1.58801,-1.5875 V 2.646866 c 0,-0.870318 -0.71769,-1.588016 -1.58801,-1.588016 h -11.6427 c -0.87032,0 -1.58595,0.717698 -1.58595,1.588016 v 11.640632 c 0,0.870318 0.71563,1.5875 1.58595,1.5875 z m 0,-1.058333 h -11.6427 c -0.30231,0 -0.52917,-0.226855 -0.52917,-0.529167 V 2.646866 c 0,-0.302313 0.22686,-0.529166 0.52917,-0.529166 h 5.29321 v 2.116149 h 1.05782 v 3.1749999 h -3.70417 v 2.1166665 h 3.70417 v 3.1749996 h -1.05782 v 2.108398 h 1.05834 V 9.5255154 h 0.52865 v 2.1166666 l 3.70416,-3.1749999 -3.70416,-3.1750001 v 2.1166669 h -0.52865 V 2.1177 h 5.29115 c 0.30231,0 0.52916,0.226853 0.52916,0.529166 v 11.640632 c 0,0.302312 -0.22685,0.529167 -0.52916,0.529167 z" />
</svg>
