<?xml version="1.0" encoding="UTF-8" standalone="no"?>
<!-- Created with Inkscape (http://www.inkscape.org/) -->

<svg
   xmlns:dc="http://purl.org/dc/elements/1.1/"
   xmlns:cc="http://creativecommons.org/ns#"
   xmlns:rdf="http://www.w3.org/1999/02/22-rdf-syntax-ns#"
   xmlns:svg="http://www.w3.org/2000/svg"
   xmlns="http://www.w3.org/2000/svg"
   xmlns:sodipodi="http://sodipodi.sourceforge.net/DTD/sodipodi-0.dtd"
   xmlns:inkscape="http://www.inkscape.org/namespaces/inkscape"
   width="512"
   height="512"
   viewBox="0 0 135.46666 135.46667"
   version="1.1"
   id="svg8"
   inkscape:version="0.92.4 5da689c313, 2019-01-14"
   sodipodi:docname="icon.svg"
   inkscape:export-filename="/home/jacobian/ataraxia/public/icon.png"
   inkscape:export-xdpi="96"
   inkscape:export-ydpi="96">
  <defs
     id="defs2" />
  <sodipodi:namedview
     id="base"
     pagecolor="#ffffff"
     bordercolor="#000000"
     borderopacity="1"
     inkscape:pageopacity="0.0"
     inkscape:pageshadow="2"
     inkscape:zoom="1.4"
     inkscape:cx="272.73357"
     inkscape:cy="200.6754"
     inkscape:document-units="px"
     inkscape:current-layer="layer1"
     showgrid="false"
     units="px"
     borderlayer="true"
     inkscape:showpageshadow="false"
     inkscape:window-width="1920"
     inkscape:window-height="1046"
     inkscape:window-x="1080"
     inkscape:window-y="712"
     inkscape:window-maximized="1"
     inkscape:pagecheckerboard="true"
     showguides="true">
    <inkscape:grid
       type="xygrid"
       id="grid10"
       spacingx="2.1166666"
       spacingy="2.1166666"
       empspacing="4" />
  </sodipodi:namedview>
  <metadata
     id="metadata5">
    <rdf:RDF>
      <cc:Work
         rdf:about="">
        <dc:format>image/svg+xml</dc:format>
        <dc:type
           rdf:resource="http://purl.org/dc/dcmitype/StillImage" />
        <dc:title></dc:title>
      </cc:Work>
    </rdf:RDF>
  </metadata>
  <g
     inkscape:label="Capa 1"
     inkscape:groupmode="layer"
     id="layer1"
     transform="translate(0,-161.53331)">
    <g
       id="g855"
       transform="matrix(0.87499996,0,0,0.87499996,8.4666692,28.658339)">
      <path
         id="rect4633-3"
         d="m 67.733332,161.53331 c -37.524281,0 -67.7333294061952,30.20905 -67.7333294061952,67.73333 0,6.30906 0.8574332361952,12.40982 2.4565609061952,18.19649 8.3019825,-3.33308 17.8507375,-4.48441 28.0696245,-4.46296 34.130238,0.0717 75.718772,13.1957 103.203122,1.63712 1.13673,-4.93534 1.73735,-10.08036 1.73735,-15.37065 0,-37.52428 -30.20905,-67.73333 -67.733328,-67.73333 z"
         style="fill:#ffffff;fill-opacity:1;stroke:none;stroke-width:1.85208428;stroke-linecap:round;stroke-linejoin:round;stroke-miterlimit:4;stroke-dasharray:none;stroke-opacity:1"
         inkscape:connector-curvature="0" />
      <path
         id="rect4633"
         d="m 29.216726,243.00545 c -9.725103,0.0775 -18.813696,1.26806 -26.7601625,4.45826 7.9121515,28.6303 34.0617485,49.53626 65.2767685,49.53626 32.232054,0 59.066078,-22.28889 65.994218,-52.3574 -27.83708,11.70408 -70.142366,-1.91119 -104.510824,-1.63712 z"
         style="fill:#f2f2f2;fill-opacity:1;stroke:none;stroke-width:1.85208428;stroke-linecap:round;stroke-linejoin:round;stroke-miterlimit:4;stroke-dasharray:none;stroke-opacity:1"
         inkscape:connector-curvature="0" />
    </g>
    <path
       inkscape:connector-curvature="0"
       id="path29"
       d="m 53.979083,278.27212 c -0.03475,-0.0347 -1.064755,-0.0951 -2.289054,-0.13419 -2.904822,-0.0928 -2.947561,-0.10235 -2.211729,-0.49361 0.598463,-0.31818 0.714174,-0.42937 1.178664,-1.13241 0.377939,-0.57206 0.867703,-2.03556 1.150673,-3.43852 0.266159,-1.31953 0.748124,-3.3916 0.841887,-3.61948 0.228052,-0.55422 1.366405,-2.81988 1.697336,-3.37818 0.63157,-1.06553 1.089328,-2.39496 1.089328,-3.16368 0,-1.67111 -1.390698,-3.98568 -3.233175,-5.38104 -1.222608,-0.92593 -5.233253,-3.58055 -5.409542,-3.58055 -0.04343,0 -2.267162,-1.46835 -3.106201,-2.05104 -1.272016,-0.88337 -3.508626,-3.0233 -4.381623,-4.19224 -0.303397,-0.40625 -1.077141,-1.88802 -1.403177,-2.68718 -0.121277,-0.29728 -0.268483,-0.6491 -0.327129,-0.78181 -0.05856,-0.13271 -0.195166,-0.53992 -0.303405,-0.90488 -0.108251,-0.36496 -0.24026,-0.7993 -0.293376,-0.96519 -0.05314,-0.1659 -0.158871,-0.62738 -0.235038,-1.02552 -0.07612,-0.39816 -0.190561,-0.95543 -0.254212,-1.2384 -0.156518,-0.69576 -0.147224,-4.67854 0.0128,-5.47861 0.0707,-0.35343 0.18449,-0.94122 0.252896,-1.30618 0.27532,-1.46879 0.629077,-2.97512 1.586704,-6.75637 0.294093,-1.16126 0.597444,-2.47729 0.674086,-2.92454 0.07659,-0.44723 0.170827,-0.89513 0.20928,-0.99535 0.08266,-0.21551 -0.183193,-0.23883 -0.731556,-0.0641 -1.922202,0.61217 -2.042985,0.654 -2.72318,0.94312 -0.165885,0.0705 -0.627369,0.24477 -1.025519,0.38723 -0.39814,0.14246 -0.886773,0.32991 -1.085844,0.41654 -0.199069,0.0867 -0.579119,0.25133 -0.84454,0.36599 -0.265438,0.11463 -0.640248,0.28394 -0.832929,0.37625 -0.192681,0.0922 -0.401633,0.16781 -0.464361,0.16781 -0.06267,0 -0.312267,0.0869 -0.554544,0.19327 -0.882627,0.38727 -1.779406,0.7259 -2.732848,1.03196 -0.398139,0.12781 -0.832481,0.27993 -0.965201,0.33804 -0.13271,0.0582 -0.377023,0.14102 -0.542917,0.18422 -0.165896,0.0431 -0.491651,0.12995 -0.723897,0.1928 -0.232246,0.0627 -0.639444,0.16108 -0.904865,0.2183 -0.26543,0.0573 -0.570349,0.14091 -0.67759,0.18594 -0.364759,0.15317 -1.232565,-1.90192 -1.381956,-3.27268 -0.132383,-1.21467 -0.08527,-1.2883 1.220563,-1.90669 0.631059,-0.29883 1.171631,-0.54334 1.201285,-0.54334 0.0297,0 0.409546,-0.16288 0.844186,-0.36195 0.434649,-0.19907 0.833004,-0.36195 0.885224,-0.36195 0.05221,0 0.308766,-0.1008 0.570077,-0.22399 0.261301,-0.1232 0.909423,-0.37105 1.440284,-0.5508 0.530859,-0.17974 1.087357,-0.37755 1.236654,-0.43957 0.149307,-0.0621 0.39362,-0.16371 0.542927,-0.22595 0.149298,-0.0622 0.705806,-0.25366 1.236656,-0.42539 0.530859,-0.17172 1.059469,-0.36511 1.174694,-0.42977 0.115226,-0.0646 0.265121,-0.11752 0.333107,-0.11752 0.06799,0 0.380889,-0.114 0.695372,-0.25331 0.314464,-0.13933 0.680355,-0.29662 0.813064,-0.34951 1.031123,-0.41097 1.640978,-0.66341 2.080822,-0.86136 0.281802,-0.12682 0.649662,-0.28279 0.817472,-0.34659 0.1678,-0.0638 0.334059,-0.19146 0.369449,-0.28367 0.0354,-0.0921 -0.225046,-0.59525 -0.578727,-1.11782 -1.162544,-1.71769 -2.387393,-3.65884 -2.387393,-3.78358 0,-0.0673 -0.05427,-0.12247 -0.120653,-0.12247 -0.06631,0 -0.120644,-0.0521 -0.120644,-0.11546 0,-0.0636 -0.442224,-0.83717 -0.982694,-1.71926 -0.540489,-0.88208 -1.307657,-2.14671 -1.704817,-2.81029 -0.844334,-1.41071 -2.849875,-4.56069 -3.456705,-5.42922 -0.231807,-0.33179 -0.588721,-0.84756 -0.793133,-1.14616 -0.204413,-0.29862 -0.613799,-0.86893 -0.909723,-1.26737 -0.468508,-0.63079 -0.815754,-1.06554 -2.267591,-2.83904 -0.181931,-0.22225 -0.255268,-0.42753 -0.207037,-0.57951 0.08593,-0.27068 1.688733,-1.8352 2.841433,-2.77354 0.431324,-0.35113 0.892807,-0.73532 1.025518,-0.85375 0.13272,-0.11845 0.35923,-0.27775 0.503354,-0.35399 0.144133,-0.0762 0.334152,-0.2096 0.422275,-0.29632 0.193681,-0.19063 2.433718,-1.59525 3.357432,-2.10527 1.525089,-0.84209 3.49329,-1.77809 5.368896,-2.55324 0.132719,-0.0549 0.377032,-0.15575 0.542926,-0.22422 0.165886,-0.0684 0.499851,-0.21145 0.742128,-0.31777 0.242276,-0.10627 0.524107,-0.19328 0.626285,-0.19328 0.102192,0 0.215331,-0.0478 0.251448,-0.10627 0.03615,-0.0585 0.18862,-0.13368 0.338907,-0.16723 0.150278,-0.0335 0.734731,-0.23459 1.298757,-0.44677 0.564044,-0.21219 1.378425,-0.49588 1.80975,-0.63043 0.431314,-0.13454 1.408583,-0.45255 2.171688,-0.70668 1.195205,-0.39804 3.516734,-1.09264 4.283061,-1.28149 0.13271,-0.0328 0.349881,-0.10307 0.482591,-0.1563 0.132711,-0.0531 0.458467,-0.15472 0.723897,-0.22548 0.891172,-0.23757 1.92789,-0.52607 2.232023,-0.62115 0.165887,-0.0517 0.545935,-0.16103 0.84454,-0.24266 0.298606,-0.0817 0.651502,-0.19141 0.784223,-0.24397 0.13271,-0.0526 0.594194,-0.18608 1.025518,-0.29669 0.431315,-0.11056 1.071283,-0.30574 1.422155,-0.43359 0.350862,-0.12787 0.703769,-0.23208 0.784212,-0.23161 0.126322,5.5e-4 0.388604,0.29254 1.55961,1.73506 0.839355,1.03398 1.700717,2.29831 2.557248,3.75362 0.510584,0.8675 2.586435,5.00035 3.363308,6.69604 0.282027,0.61559 0.449098,0.98652 1.168343,2.59397 0.148457,0.33178 0.427159,0.93676 0.619345,1.34439 0.192187,0.40763 0.349415,0.77722 0.349415,0.82128 0,0.0975 1.902373,3.89165 2.331952,4.65101 0.16893,0.29862 0.426281,0.7601 0.571889,1.02553 0.468965,0.85487 1.113164,1.80432 1.362605,2.00829 0.212509,0.17378 0.307794,0.17902 0.763132,0.0419 0.286165,-0.0862 0.520305,-0.12636 0.520305,-0.0893 0,0.037 0.104368,-0.0272 0.231929,-0.14267 0.127573,-0.11544 0.4669,-0.23511 0.754063,-0.26592 0.614778,-0.066 1.439481,-0.28584 1.601938,-0.42711 0.06305,-0.0549 0.228632,-0.0997 0.367973,-0.0997 0.139361,0 0.304947,-0.0431 0.367991,-0.0959 0.06305,-0.0528 0.331779,-0.16585 0.597208,-0.2512 0.579998,-0.18651 2.076146,-0.71842 2.412995,-0.85787 0.613177,-0.25384 1.861062,-0.69758 2.35266,-0.8366 0.298605,-0.0845 0.637199,-0.20253 0.752426,-0.2624 0.115221,-0.0599 0.315608,-0.10886 0.445308,-0.10886 0.129708,0 0.265507,-0.048 0.30179,-0.10672 0.03634,-0.0586 0.215936,-0.13568 0.399234,-0.17104 0.183297,-0.0353 0.55043,-0.12533 0.815857,-0.19988 0.438892,-0.1233 1.812825,-0.41721 3.378183,-0.72267 1.180571,-0.23036 1.824579,-0.29617 2.955194,-0.30195 l 1.145438,-0.005 -0.04092,0.47865 c -0.11094,1.29701 -1.174872,3.11268 -2.334949,3.98473 -0.675009,0.50741 -1.209698,0.79495 -2.750262,1.47903 -0.711596,0.31598 -2.831436,0.87448 -5.127603,1.35092 -0.331785,0.0688 -0.820417,0.17456 -1.085843,0.23494 -0.265428,0.0603 -0.80835,0.1727 -1.206498,0.24961 -0.398141,0.0769 -0.913921,0.19828 -1.14617,0.26973 -0.781063,0.24027 -1.14482,0.36133 -1.387463,0.46177 -0.132721,0.0549 -0.539913,0.20711 -0.904877,0.33818 -0.741139,0.26616 -1.689088,0.74987 -1.689088,0.8619 0,0.0402 0.285033,0.22133 0.633411,0.40252 0.348377,0.18121 0.877714,0.47102 1.176329,0.644 0.298605,0.17297 0.705801,0.40432 0.90487,0.5141 0.39717,0.21898 1.180788,0.70524 1.930394,1.19784 0.935226,0.61457 2.902768,2.29063 3.510849,2.99073 1.062448,1.22325 2.202532,3.099 2.740447,4.50883 0.06327,0.16589 0.157587,0.41023 0.20952,0.54293 0.05194,0.13271 0.12978,0.37702 0.172984,0.54292 0.04317,0.16589 0.129851,0.49165 0.192558,0.7239 0.227256,0.84157 0.365524,1.64552 0.425378,2.47332 0.03361,0.4645 0.08309,0.91142 0.110013,0.99317 0.06431,0.19538 1.480921,1.09272 2.471177,1.56541 1.165367,0.55627 2.041335,0.69468 3.319785,0.52456 0.846248,-0.11259 1.902248,-0.44138 2.220214,-0.69122 0.06102,-0.0479 -0.173724,-0.51465 -0.624361,-1.2416 -0.654042,-1.05505 -0.686898,-1.86418 -0.09001,-2.21677 0.410079,-0.24225 1.312207,-0.26041 1.84647,-0.0371 0.346745,0.14489 0.407258,0.24388 0.539054,0.88197 0.178619,0.8648 0.197761,3.8252 0.02676,4.14465 -0.06689,0.12502 -0.541972,0.42522 -1.055678,0.66707 -2.977689,1.40193 -4.430842,1.69924 -6.001297,1.22788 -0.464498,-0.13941 -0.871691,-0.29206 -0.904869,-0.33921 -0.0332,-0.0472 -0.168917,-0.10468 -0.301629,-0.12794 -0.214184,-0.0375 -0.24192,0.0256 -0.246864,0.56102 -0.0086,0.92919 -0.198741,4.42674 -0.259108,4.76567 -0.02959,0.16588 -0.09805,0.62736 -0.152201,1.02551 -0.143231,1.05293 -0.244823,1.63398 -0.36916,2.11135 -0.06046,0.23226 -0.192872,0.77519 -0.294169,1.2065 -0.412675,1.75705 -1.203458,3.88688 -2.004563,5.39891 -0.472641,0.89208 -1.313845,2.32088 -1.438498,2.44331 -0.03376,0.0332 -0.248309,0.33179 -0.47674,0.66357 -0.572033,0.83085 -1.364374,1.77927 -2.296585,2.74895 -0.432808,0.45022 -0.803766,0.86721 -0.824347,0.92665 -0.03168,0.0915 0.507717,1.0235 0.700549,1.21071 0.03416,0.0332 0.214473,0.26467 0.400657,0.51442 0.30498,0.40912 1.526262,1.41596 1.717533,1.41596 0.04237,0 0.221132,0.1008 0.397266,0.22412 0.372431,0.26066 1.763431,0.86995 2.79357,1.22367 0.232248,0.0797 0.530853,0.19089 0.663568,0.24699 0.132714,0.0561 0.567056,0.1931 0.965196,0.3045 0.398142,0.11135 0.832483,0.2455 0.965197,0.29805 0.132713,0.0526 0.349881,0.12213 0.482601,0.15466 0.643359,0.15763 2.718789,0.97635 3.423061,1.35032 0.435475,0.23123 0.858499,0.42043 0.940059,0.42043 0.371843,0 1.759001,-0.97947 2.655912,-1.87536 1.029398,-1.02819 2.279922,-2.81367 3.418622,-4.88102 2.166584,-3.93349 2.599414,-4.59691 3.919624,-6.00752 1.49589,-1.59833 2.68937,-2.14296 4.47267,-2.04103 1.32303,0.0756 1.92425,0.23544 3.15301,0.83822 1.12868,0.55371 1.25964,0.72933 0.96833,1.29851 -0.13687,0.26746 -0.24972,0.30847 -0.996,0.36196 l -0.84165,0.0603 0.0316,0.42227 c 0.0174,0.23225 0.0926,0.57332 0.16706,0.75793 0.0745,0.1846 0.10007,0.37105 0.0569,0.41432 -0.0432,0.0432 -0.41705,-0.0338 -0.83064,-0.17101 -0.41355,-0.13729 -1.09912,-0.34993 -1.52347,-0.47252 -0.62918,-0.18178 -0.8509,-0.31787 -1.20188,-0.73775 -0.2367,-0.28318 -0.50468,-0.51487 -0.59551,-0.51487 -0.29662,0 -1.51803,0.8809 -2.2205,1.60148 -1.15787,1.18769 -2.00875,2.58629 -4.05373,6.66302 -1.483044,2.95649 -2.629269,4.58531 -3.865666,5.4932 -1.089558,0.80007 -1.82724,1.02186 -3.398766,1.02186 -1.233542,0 -1.292035,-0.0125 -2.171693,-0.46424 -0.497202,-0.25531 -1.121169,-0.62529 -1.386596,-0.82219 -1.620049,-1.20171 -2.006123,-1.45685 -2.771236,-1.83146 -1.210614,-0.5927 -1.405794,-0.65858 -2.225775,-0.75136 -0.667741,-0.0756 -0.733566,-0.0627 -0.730801,0.14369 0.0057,0.39103 0.835948,2.768 1.38633,3.96686 0.15232,0.33179 0.397899,0.87471 0.545734,1.2065 0.412935,0.92678 0.831455,1.85437 1.21498,2.69286 0.191811,0.41936 0.348755,0.78422 0.348755,0.81082 0,0.0267 0.143833,0.36211 0.319629,0.74562 0.342065,0.74625 1.084372,2.73574 1.261784,3.38178 0.05925,0.21565 0.158882,0.56855 0.22146,0.78421 0.565271,1.94802 0.994958,4.48853 1.025386,6.06264 l 0.0072,0.36193 1.206498,0.0976 c 1.152612,0.10609 1.346335,0.45785 -1.870067,0.50585 -8.353085,0.0636 -12.096428,0.12748 -14.296967,0.2441 -1.668923,0.0884 -21.105426,0.20635 -21.183273,0.12851 z m 1.752357,-1.54229 c 0.574832,-0.35211 1.272912,-0.77944 1.551277,-0.9496 l 0.50613,-0.30941 0.03961,-1.86229 c 0.04258,-2.00442 -0.118076,-3.86344 -0.428729,-4.95985 -0.193933,-0.68447 -0.987319,-1.79198 -1.279179,-1.78566 -0.13542,0.002 -0.70646,1.08934 -1.108167,2.10829 -0.104639,0.26543 -0.240381,0.59119 -0.30167,0.7239 -0.24108,0.52214 -1.058001,3.06544 -1.259462,3.92111 -0.117188,0.49767 -0.261423,0.99914 -0.320545,1.11436 -0.05911,0.11523 -0.107495,0.31627 -0.107495,0.44676 0,0.1305 -0.0482,0.36198 -0.107066,0.5144 -0.21223,0.54935 -0.39363,1.53772 -0.307749,1.67668 0.06174,0.0999 0.382898,0.12113 1.082818,0.0717 0.93621,-0.0662 1.056947,-0.10807 2.040239,-0.71042 z m 15.84956,0.22218 c 0.08546,-1.03712 -1.031813,-2.65737 -3.875991,-5.62101 -2.421335,-2.52304 -3.452392,-3.80887 -3.971735,-4.95315 -0.195885,-0.4316 -0.40551,-0.87899 -0.465835,-0.99422 -0.139837,-0.26707 -0.143881,-2.05747 -0.0047,-2.20953 0.05754,-0.063 0.136354,-0.28454 0.175059,-0.49222 l 0.07033,-0.37762 -0.973178,-0.0176 c -0.535248,-0.0103 -1.070648,-0.0699 -1.189797,-0.13362 -0.507902,-0.27182 -1.065773,-1.70047 -1.096997,-2.80932 -0.02438,-0.86351 -0.14387,-1.13945 -0.649297,-1.49875 -0.420071,-0.29861 -1.329372,-0.77816 -2.195319,-1.15778 -0.476446,-0.20885 -2.225412,-0.15902 -2.724105,0.0776 -0.247217,0.11731 -0.449481,0.25244 -0.449481,0.30028 0,0.0878 0.586039,0.99641 0.714743,1.10818 0.07705,0.0669 1.671099,2.45388 1.893425,2.83525 0.753458,1.29257 1.493923,2.68289 1.493923,2.80509 0,0.0829 0.05427,0.15084 0.120643,0.15084 0.06631,0 0.120643,0.0977 0.120643,0.21716 0,0.11944 0.04941,0.26875 0.10963,0.33179 0.06033,0.063 0.251317,0.54896 0.424525,1.07982 0.43267,1.32611 0.507969,1.58988 0.671585,2.35265 0.07827,0.36496 0.198257,0.88074 0.266587,1.14618 0.137324,0.53344 0.180147,5.15948 0.05146,5.56235 -0.07884,0.24678 -0.03606,0.25612 1.551353,0.33844 0.897822,0.0465 1.781198,0.13011 1.963064,0.18564 0.181875,0.0555 0.656434,0.16694 1.054574,0.24756 0.398141,0.0806 0.883421,0.20588 1.07841,0.27836 0.475727,0.17684 3.538972,0.15956 3.719531,-0.0211 0.07519,-0.0753 0.180044,-0.13662 0.233132,-0.13662 0.229004,0 0.05809,0.34965 -0.460773,0.94285 -0.306507,0.35037 -0.526742,0.66761 -0.489391,0.70496 0.06668,0.0667 2.261127,0.26397 2.615128,0.23504 0.119391,-0.0103 0.193951,-0.17226 0.219095,-0.47756 z m 5.303106,0.16314 c 0.05052,-0.46681 -0.37126,-1.02333 -1.016216,-1.34085 -0.500878,-0.24657 -0.762067,-0.28792 -1.818809,-0.28792 -1.181064,0 -1.247957,0.0141 -1.561123,0.32721 -0.311261,0.31128 -0.317135,0.33832 -0.120502,0.55559 0.190028,0.20999 0.88073,0.59328 1.46777,0.81453 0.407442,0.15356 1.408127,0.26504 2.232006,0.24865 0.742556,-0.0148 0.785959,-0.0316 0.816874,-0.31721 z m 3.371101,0.0906 c 0.174069,-0.22741 0.610686,-1.75878 0.697309,-2.44569 0.09944,-0.7885 -0.0734,-1.21737 -0.589678,-1.46358 l -0.415208,-0.198 -1.096834,1.00585 c -0.603257,0.55322 -1.174218,1.12396 -1.268802,1.26832 -0.19389,0.29591 -0.380314,1.64907 -0.255085,1.85168 0.120354,0.19475 2.777914,0.17787 2.928298,-0.0186 z m 8.720824,0.0603 c -0.0016,-0.23578 -0.368727,-2.09904 -0.587999,-2.98607 -0.0656,-0.26543 -0.17911,-0.72691 -0.252204,-1.02553 -0.453161,-1.85126 -1.56468,-5.09073 -2.302284,-6.70985 -0.129248,-0.28373 -0.234999,-0.54951 -0.234999,-0.59064 0,-0.0869 -1.790082,-3.69917 -1.875515,-3.7846 -0.165925,-0.16592 -1.142891,1.74282 -1.368218,2.67314 -0.09549,0.39428 -0.133638,2.09095 -0.120718,5.3689 l 0.0189,4.79246 -0.378268,1.10365 c -0.208042,0.60699 -0.378259,1.13636 -0.378259,1.17634 0,0.04 1.683062,0.0726 3.74013,0.0726 2.057078,0 3.739818,-0.0407 3.739441,-0.0906 z m -11.636083,-3.6061 c 0.471191,-0.94641 0.657682,-1.76483 0.657682,-2.88629 0,-1.65316 -0.700739,-3.94969 -1.532044,-5.02098 -0.500375,-0.64481 -1.446774,-1.43812 -1.940695,-1.62674 -0.606989,-0.23181 -0.698435,-0.1685 -0.812139,0.5624 -0.03615,0.23225 -0.118365,0.58901 -0.182754,0.7928 -0.160981,0.50956 -0.147682,3.65847 0.01839,4.36322 0.229303,0.97284 0.475521,1.7401 0.736683,2.2957 0.281514,0.5989 1.67675,2.07959 1.959571,2.07959 0.101479,0 0.184501,0.058 0.184501,0.12904 0,0.071 0.121959,0.11168 0.271014,0.0906 0.195493,-0.0279 0.373734,-0.24491 0.639754,-0.77921 z m -5.133494,-0.38446 c 0,-0.0548 -0.141499,-0.23125 -0.314436,-0.39213 -0.719264,-0.66904 -0.968741,-1.20604 -1.188444,-2.55798 -0.154096,-0.94826 -0.188832,-1.58519 -0.128273,-2.35266 0.04566,-0.5788 0.08705,-1.92332 0.092,-2.98783 0.01317,-2.8451 -0.276814,-3.58556 -1.658051,-4.2338 -0.749675,-0.35185 -0.856738,-0.35341 -0.956656,-0.0141 -0.044,0.1493 -0.167258,0.57007 -0.274003,0.93503 -0.252308,0.86269 -0.281056,4.21728 -0.04446,5.18793 0.364143,1.49385 0.765618,2.75828 1.110941,3.49882 0.698893,1.49881 1.739869,2.58077 2.766751,2.87569 0.541535,0.15551 0.594641,0.15918 0.594641,0.0408 z m 7.864169,-0.92591 c 0.07557,-0.16589 0.182229,-0.30163 0.236977,-0.30163 0.05475,0 0.272026,-0.33933 0.482835,-0.75406 0.361417,-0.71101 0.383342,-0.82977 0.384241,-2.0812 8.04e-4,-1.54508 -0.167155,-2.27578 -0.896155,-3.89132 -0.389603,-0.86341 -0.636942,-1.35545 -1.015691,-2.0205 -0.188957,-0.33178 -0.403592,-0.71183 -0.476967,-0.84456 -0.0734,-0.1327 -0.335039,-0.55086 -0.581471,-0.92922 -0.246437,-0.37837 -0.448064,-0.7158 -0.448064,-0.74986 0,-0.0341 -0.298605,-0.52479 -0.66357,-1.09053 -0.364964,-0.56575 -0.663578,-1.07676 -0.663578,-1.1356 0,-0.0588 -0.0737,-0.16811 -0.163682,-0.24284 -0.135186,-0.11225 -0.177103,0.0692 -0.240614,1.04091 -0.08638,1.32224 0.02073,2.23151 0.40862,3.4691 0.264682,0.84438 0.365526,1.08725 1.202298,2.8956 1.351567,2.92085 1.836131,4.40823 1.994779,6.12296 0.07936,0.85792 0.212232,1.01273 0.440042,0.51275 z m -12.448842,-4.19589 c 0,-0.0184 -0.156405,-0.33494 -0.347546,-0.70336 -0.484133,-0.93309 -0.782887,-2.25936 -0.989112,-4.39076 -0.307803,-3.18116 -0.441851,-4.01337 -0.824318,-5.1176 -0.296439,-0.85586 -0.856925,-1.74756 -1.220844,-1.94233 -0.145066,-0.0776 -1.013944,-0.11317 -2.257624,-0.0922 -1.724336,0.0289 -2.015555,0.0605 -1.979334,0.21491 0.655435,2.79343 1.501712,3.75677 4.378505,4.98417 l 0.439534,0.18754 -0.118831,0.55713 c -0.06539,0.30643 -0.32457,0.948 -0.576046,1.42574 -0.612873,1.16426 -0.805489,1.77112 -0.602057,1.89684 0.08425,0.0522 0.814334,0.75143 1.622354,1.5541 1.406549,1.39723 1.490551,1.45941 1.972217,1.45941 0.276704,0 0.503102,-0.0151 0.503102,-0.0335 z m 14.655926,-5.91277 c 3.94e-4,-0.92767 -0.02516,-1.02799 -0.401348,-1.56782 -0.22105,-0.31721 -0.763425,-0.87132 -1.205285,-1.23139 -1.780121,-1.45062 -1.665045,-1.30896 -1.479722,-1.82145 0.09013,-0.24927 0.324251,-0.72521 0.520251,-1.05762 0.195999,-0.33243 0.439696,-0.81268 0.541546,-1.06723 0.18185,-0.45448 0.179447,-0.46733 -0.133412,-0.71342 -0.175227,-0.13784 -0.535501,-0.57002 -0.800615,-0.96042 -0.701242,-1.03263 -1.211811,-1.22744 -1.674686,-0.63899 -0.55009,0.69934 -0.201769,4.30091 0.622703,6.43848 0.326647,0.8469 0.894773,1.73299 1.522639,2.37482 0.888283,0.90805 2.098237,1.59564 2.368496,1.34596 0.06537,-0.0603 0.119136,-0.55583 0.119433,-1.10092 z m -8.499165,-1.3832 c 0.002,-0.18247 0.141957,-0.82042 0.31098,-1.41764 0.169025,-0.59721 0.33448,-1.19692 0.367665,-1.3327 0.04605,-0.18836 -0.177412,-0.48145 -0.942832,-1.23665 -0.898179,-0.8862 -1.05068,-0.9898 -1.457151,-0.9898 h -0.453992 v 1.73468 c 0,1.31102 0.04698,1.84878 0.192194,2.20185 0.252663,0.61416 0.750675,1.13074 1.090076,1.13074 0.149559,0 0.305479,0.0543 0.34649,0.12065 0.041,0.0663 0.179942,0.12065 0.308749,0.12065 0.174142,0 0.235103,-0.085 0.237821,-0.33178 z m -6.271828,-2.74764 c 0.438413,-0.22674 0.718302,-0.86112 0.718302,-1.62808 v -0.57596 l -1.266805,0.0116 c -0.942635,0.008 -1.266824,0.0511 -1.266824,0.16599 0,0.1737 0.274639,0.92906 0.617198,1.69754 0.256745,0.57592 0.559627,0.65908 1.198129,0.3289 z m 8.738405,-2.31964 c 0.125229,-1.10709 0.08742,-1.72494 -0.125369,-2.04973 -0.217985,-0.3327 -0.374491,-0.34746 -0.470665,-0.0445 -0.07649,0.24079 -0.396992,0.39974 -1.240774,0.61522 -0.282027,0.0721 -0.51276,0.15374 -0.51276,0.18159 0,0.0769 2.100688,2.10453 2.184401,2.10837 0.04016,0.002 0.114498,-0.3631 0.165167,-0.81101 z m -11.458596,-1.18167 c 1.702257,-0.16651 2.157958,-0.22912 3.800441,-0.52217 1.034502,-0.18458 3.202708,-0.8153 4.162417,-1.21081 0.132702,-0.0547 0.377032,-0.1536 0.542918,-0.21977 0.682773,-0.27234 2.717519,-1.29459 2.754833,-1.38403 0.02213,-0.053 0.09719,-0.0965 0.16682,-0.0965 0.162093,0 2.139289,-1.33214 2.929011,-1.97343 1.230785,-0.99944 2.219954,-2.04074 3.225509,-3.39548 0.04928,-0.0663 0.226098,-0.29135 0.392994,-0.50001 0.16689,-0.20865 0.303439,-0.40952 0.303439,-0.44638 0,-0.0369 0.156333,-0.3005 0.347396,-0.58584 0.347951,-0.51961 1.462349,-2.6508 1.462349,-2.79658 0,-0.0427 0.10544,-0.30767 0.234307,-0.58896 0.325666,-0.71087 0.851537,-2.38002 0.851537,-2.70283 0,-0.14724 0.04711,-0.29679 0.104648,-0.33237 0.05756,-0.0355 0.137835,-0.29665 0.178394,-0.58021 0.04051,-0.28354 0.130399,-0.81412 0.19964,-1.1791 0.311871,-1.64378 0.434728,-7.09371 0.165981,-7.36245 -0.210992,-0.21099 -1.779252,-0.2898 -2.423237,-0.12179 -0.961996,0.25099 -1.34573,0.47366 -1.992883,1.15645 -0.614455,0.64827 -1.661766,2.2549 -1.661766,2.54922 0,0.37134 -0.442043,0.51228 -3.197205,1.01937 -0.331791,0.0611 -1.204247,0.14325 -1.938791,0.18264 -1.235273,0.0662 -1.454507,0.0422 -2.920559,-0.32145 -1.375559,-0.34113 -1.632657,-0.37336 -1.945431,-0.2438 -0.502989,0.20834 -2.067447,1.74261 -2.666207,2.61473 -0.09954,0.14498 -0.506726,0.74338 -0.904866,1.32978 -0.39814,0.58639 -0.765038,1.12074 -0.815315,1.18743 -0.05025,0.0667 -0.498412,0.6743 -0.995883,1.35026 -0.900064,1.22301 -1.491503,1.79355 -2.411537,2.32632 -0.575224,0.33309 -1.969517,0.39684 -2.47332,0.11308 -1.085657,-0.61149 -2.412984,-1.87767 -2.412984,-2.30181 0,-0.18499 1.107279,-1.2788 1.536644,-1.51794 0.14841,-0.0827 0.432762,-0.15029 0.631898,-0.15029 0.290909,0 0.421648,0.0944 0.665213,0.4802 0.166717,0.26412 0.303125,0.5363 0.303125,0.60489 0,0.0685 0.04978,0.21895 0.110511,0.33418 0.0608,0.11522 0.19906,0.4131 0.307281,0.66191 0.199697,0.45916 0.426758,0.60273 0.426758,0.26985 0,-0.10038 0.05117,-0.27689 0.11374,-0.39212 0.06258,-0.11521 0.315352,-0.75241 0.561767,-1.41599 0.390621,-1.05191 1.385196,-3.19734 1.875764,-4.04625 0.327726,-0.56713 1.262545,-1.89314 1.786969,-2.53475 0.973365,-1.19089 2.416898,-2.1951 4.167545,-2.89922 0.694934,-0.27949 2.001471,-0.38955 2.865502,-0.2414 0.481049,0.0824 0.9689,0.19979 1.084135,0.26065 0.115226,0.0609 0.315613,0.11067 0.445316,0.11067 0.129694,0 0.269363,0.0542 0.310383,0.12063 0.041,0.0663 0.1716,0.12066 0.290199,0.12066 0.118606,0 0.373296,0.0777 0.565969,0.17278 0.192671,0.0951 0.491603,0.2075 0.664279,0.2499 0.275582,0.0677 0.34042,0.0209 0.530449,-0.3839 0.645556,-1.37475 1.771588,-2.54258 3.090998,-3.20582 1.12932,-0.56767 1.82851,-0.71019 3.818562,-0.77835 l 1.600836,-0.0549 -0.0615,-0.68437 c -0.08747,-0.97296 -0.190219,-1.65497 -0.384844,-2.55439 -0.09332,-0.43134 -0.202285,-0.962 -0.242112,-1.17927 -0.03979,-0.21728 -0.119393,-0.42408 -0.176801,-0.45956 -0.0574,-0.0355 -0.104391,-0.18619 -0.104391,-0.33489 0,-0.1487 -0.04719,-0.32195 -0.104784,-0.38499 -0.05765,-0.0631 -0.203075,-0.38607 -0.323206,-0.71785 -0.120133,-0.33179 -0.317298,-0.74737 -0.438146,-0.9235 -0.120838,-0.17613 -0.221934,-0.36617 -0.224652,-0.42227 -0.0025,-0.0561 -0.152015,-0.2973 -0.331784,-0.53594 -0.179767,-0.23865 -0.495013,-0.65613 -0.700556,-0.92774 -0.886169,-1.17099 -3.750052,-3.16271 -4.54766,-3.16271 -0.105597,0 -0.225544,-0.0542 -0.266553,-0.12065 -0.041,-0.0663 -0.203891,-0.12064 -0.361949,-0.12064 -0.15806,0 -0.317229,-0.0484 -0.35371,-0.10728 -0.06939,-0.11237 -0.145824,-0.12856 -1.998959,-0.42484 -1.753281,-0.28033 -4.049161,-0.21166 -5.670525,0.16958 -0.232256,0.0547 -0.720881,0.1628 -1.085846,0.24044 -1.203647,0.25603 -3.121497,0.81022 -3.860777,1.11565 -0.58376,0.24116 -0.795027,0.32089 -1.990718,0.75101 -0.663571,0.23871 -1.315074,0.48223 -1.447793,0.54116 -0.13272,0.0589 -0.784224,0.3119 -1.447793,0.56218 -0.663579,0.25025 -1.258072,0.4991 -1.321115,0.55299 -0.06305,0.0539 -0.185781,0.0979 -0.272771,0.0979 -0.08695,0 -0.415457,0.11399 -0.729931,0.25332 -0.314474,0.13933 -0.680354,0.2984 -0.813064,0.35349 -0.132719,0.0551 -0.594202,0.24666 -1.025527,0.4257 -1.86493,0.77407 -2.193815,0.91995 -3.80046,1.68577 -1.225354,0.58408 -2.390139,1.15611 -3.438502,1.68869 -1.366368,0.69411 -3.159718,1.87352 -4.108443,2.70194 -1.555238,1.35801 -3.255171,4.78663 -3.743328,7.54999 -0.552911,3.12985 -0.589767,5.9232 -0.106648,8.08351 0.05931,0.26543 0.196195,0.88979 0.304088,1.38747 0.10789,0.49768 0.240007,1.01346 0.293589,1.14616 0.05352,0.13272 0.165952,0.43134 0.249703,0.66359 0.602095,1.66958 1.914907,3.95278 2.878941,5.00695 0.410477,0.44885 0.73954,0.64036 0.621998,0.36194 -0.0763,-0.18075 -0.347705,-3.16262 -0.554518,-6.09279 -0.110656,-1.56766 -0.4045,-4.04278 -0.644573,-5.42923 -0.331985,-1.91726 -0.415782,-2.31393 -0.68704,-3.25231 -0.162216,-0.56118 -0.293403,-1.07696 -0.291526,-1.14618 0.002,-0.0693 0.224175,-0.37018 0.493976,-0.66878 0.269801,-0.29861 0.607597,-0.71351 0.750636,-0.92202 0.766654,-1.11743 2.197645,-3.13785 2.3064,-3.25642 0.06893,-0.0753 0.474921,-0.59096 0.902137,-1.14618 0.657406,-0.85435 1.08039,-1.27935 2.453053,-2.46475 0.471561,-0.40722 1.883842,-1.1026 2.983631,-1.46909 1.22046,-0.4067 1.346289,-0.42404 3.438513,-0.47425 2.777575,-0.0666 2.765676,-0.0641 2.659389,-0.55844 -0.04566,-0.21249 -0.128536,-0.65779 -0.184126,-0.98958 -0.05557,-0.33178 -0.139211,-0.72476 -0.185845,-0.87325 -0.102937,-0.32779 0.216451,-0.5052 0.452246,-0.25121 0.488092,0.52573 1.438246,2.3633 2.078664,4.02005 0.179549,0.4645 0.376433,0.93881 0.437506,1.05404 0.06108,0.11524 0.111064,0.29241 0.111064,0.39376 0,0.10131 0.04941,0.27852 0.109742,0.39375 0.530458,1.01264 0.917167,3.96496 0.817586,6.24196 -0.07668,1.75467 -0.259016,2.50687 -0.891744,3.67981 -0.396768,0.73555 -1.527051,2.05104 -1.762257,2.05104 -0.05837,0 -0.250253,0.10245 -0.426393,0.22771 -0.176141,0.12525 -0.754588,0.38139 -1.285437,0.56922 -0.883292,0.31253 -1.103423,0.34089 -2.593974,0.33429 -2.004878,-0.009 -2.791501,-0.24758 -4.710603,-1.42929 -0.826783,-0.5091 -1.138315,-0.73999 -3.008186,-2.22957 -1.622775,-1.29277 -2.687492,-2.05704 -2.865604,-2.05704 -0.08435,0 -0.153407,-0.0543 -0.153407,-0.12065 0,-0.0663 -0.08144,-0.12065 -0.180969,-0.12065 -0.124501,0 -0.179822,0.12237 -0.177281,0.39211 0.0057,0.59076 0.234486,3.18927 0.353412,4.0116 0.217965,1.50717 0.482095,3.28788 0.608464,4.10207 0.639809,4.12233 0.701668,5.92282 0.292255,8.50579 l -0.06697,0.42228 1.361483,0.90488 c 0.748816,0.49767 1.417391,0.93201 1.485751,0.96517 0.06837,0.0332 0.450031,0.27413 0.848181,0.53542 1.079317,0.70836 3.51933,1.92279 4.343378,2.16175 2.010342,0.58298 3.006495,0.76138 5.429221,0.97225 2.456546,0.21382 4.125974,0.21516 6.273772,0.004 z m 6.260433,-14.26331 c -0.0737,-0.0488 -0.232919,-0.27865 -0.353842,-0.5109 -0.303723,-0.58335 -0.422301,-3.8474 -0.148036,-4.07502 0.187619,-0.15572 2.039137,-0.77536 2.108766,-0.70573 0.02261,0.0226 -0.04166,0.35883 -0.142835,0.74717 -0.101148,0.38836 -0.183903,0.88708 -0.183903,1.10828 0,0.3341 0.494753,1.87381 0.970862,3.02146 0.06323,0.15242 0.114983,0.32888 0.114983,0.3921 0,0.13423 -2.16601,0.15496 -2.365995,0.0228 z m 3.944723,-0.61559 c -0.146327,-0.0987 -0.142676,-0.21354 0.02559,-0.80503 0.347331,-1.22095 0.612042,-1.36927 2.648576,-1.48407 1.730109,-0.0976 1.766334,-0.0379 0.663576,1.09324 -0.602123,0.61759 -0.887773,0.81436 -1.417633,0.97656 -0.872793,0.26717 -1.707675,0.3625 -1.9201,0.2193 z M 74.2575,237.37979 c 0,-0.75961 0.28678,-1.24509 0.9007,-1.52477 1.194057,-0.54395 1.598707,-0.62197 2.937581,-0.56639 2.035499,0.0845 2.496219,0.27208 2.004049,0.81592 -0.467239,0.51629 -1.519147,0.80592 -2.99194,0.82383 -0.892519,0.0113 -1.173622,0.0646 -1.689089,0.32295 -0.340112,0.17046 -0.704095,0.3871 -0.808861,0.48139 -0.296532,0.26691 -0.35244,0.21092 -0.35244,-0.35293 z m 8.867731,-0.19191 c -0.807014,-0.57452 -1.422057,-2.03791 -1.583213,-3.76701 l -0.05241,-0.5622 0.757476,-0.0478 c 0.433441,-0.0273 0.816774,0.007 0.896074,0.0796 0.28362,0.26069 0.645632,2.1875 0.645632,3.43645 0,0.6684 -0.04075,1.21285 -0.09049,1.2099 -0.04977,-0.002 -0.307658,-0.15999 -0.573085,-0.34895 z m -11.039429,-9.28282 c -1.174358,-0.51157 -1.780003,-0.88196 -3.130053,-1.91432 l -0.777395,-0.59445 0.03306,-1.2311 c 0.05146,-1.9153 -0.126938,-2.35176 -1.510033,-3.69486 -0.614993,-0.59723 -1.39235,-1.32418 -1.727465,-1.61548 -0.789621,-0.68639 -1.283869,-1.4435 -1.451445,-2.22341 -0.126592,-0.58915 -0.118382,-0.63734 0.142593,-0.83721 0.152295,-0.11663 0.412634,-0.3195 0.57853,-0.45081 0.412561,-0.32657 0.566743,-0.30389 0.93862,0.13806 0.66654,0.79213 1.982313,1.41865 3.777792,1.79882 0.464546,0.0983 1.403894,0.11963 3.016229,0.0683 2.224411,-0.0708 3.004468,-0.13574 5.237174,-0.43586 1.999017,-0.26869 2.897255,-0.33764 3.009918,-0.231 0.07187,0.068 0.0603,0.54481 -0.03136,1.28483 -0.08007,0.64714 -0.145142,1.86469 -0.144499,2.70567 8.04e-4,1.42792 -0.04751,1.86158 -0.383084,3.41756 -0.35599,1.65069 -1.447483,3.14672 -2.75264,3.7728 -0.604998,0.29023 -0.812643,0.32123 -2.352658,0.3512 -1.625127,0.0316 -1.718798,0.0199 -2.473319,-0.30874 z m 2.835259,-1.36201 c 1.969537,-0.53277 3.787882,-2.22051 3.79781,-3.52509 0.0032,-0.47517 -0.217464,-1.17413 -0.482538,-1.52556 l -0.219604,-0.29112 -0.142303,0.35841 c -0.367695,0.9261 -0.608488,1.38396 -0.72785,1.38396 -0.07173,0 -0.453022,-0.28505 -0.847445,-0.63342 -1.321779,-1.16746 -2.014227,-1.33874 -2.82081,-0.69775 -0.247722,0.19687 -0.947409,0.59497 -1.554875,0.88468 -0.698865,0.33332 -1.246041,0.68802 -1.489999,0.96592 -0.355036,0.40443 -0.637679,1.08377 -0.639305,1.53664 -7.74e-4,0.26058 0.929262,1.11852 1.507438,1.3903 0.78567,0.36932 2.544872,0.44368 3.619481,0.15303 z m -4.839362,-3.9312 c 0.452274,-0.86352 2.005812,-1.71092 3.6932,-2.01452 0.559749,-0.10069 1.463185,-0.31461 1.689099,-0.39988 0.09952,-0.0376 0.421508,-0.15669 0.715518,-0.26471 0.851609,-0.31287 0.746479,-0.45504 -0.40763,-0.55118 -1.10714,-0.0921 -2.840881,0.003 -3.625758,0.20183 -1.757988,0.44247 -2.956341,1.61932 -2.613726,2.56681 0.07725,0.21355 0.140416,0.47945 0.140416,0.59087 0,0.30937 0.214695,0.24152 0.408881,-0.12922 z m -15.188438,13.488 c 1.106224,-0.46536 1.678935,-0.79878 2.392623,-1.39293 0.648953,-0.54025 1.593579,-1.6522 1.99227,-2.34517 0.468834,-0.8149 0.611585,-1.10405 0.926927,-1.87757 0.309271,-0.75862 0.344435,-0.98568 0.345678,-2.232 8.02e-4,-1.28762 -0.02353,-1.43757 -0.345389,-2.08368 -0.322413,-0.64736 -0.61972,-1.03131 -0.712081,-0.91959 -0.02158,0.026 -0.237382,0.41384 -0.479678,0.86174 -0.242303,0.4479 -0.639035,1.18086 -0.881628,1.62878 -0.242594,0.4479 -0.534848,0.9501 -0.649448,1.11601 -0.235664,0.34113 -0.668707,1.08963 -0.942318,1.62874 -0.101024,0.19909 -0.355382,0.63342 -0.565212,0.96521 -0.367646,0.58131 -1.393883,2.56624 -1.777779,3.43851 -0.298858,0.67907 -0.570789,1.35211 -0.570789,1.4128 0,0.0776 0.970983,-0.0764 1.266824,-0.20085 z m -1.417373,-1.8038 c 1.320444,-1.545 2.428966,-3.39918 3.685412,-6.16452 0.695875,-1.53155 0.946064,-2.0858 1.252626,-2.77493 0.162346,-0.36497 0.34977,-0.76388 0.416493,-0.88646 0.224643,-0.41271 -0.0096,-0.36061 -0.442542,0.0985 -0.656901,0.69651 -1.759063,2.18828 -2.409584,3.26135 -0.473653,0.78131 -4.040944,7.73276 -4.040944,7.87445 0,0.12478 1.048617,-0.8351 1.538539,-1.40831 z m -2.022466,0.65379 c 0.08182,-0.0987 0.3492,-0.57371 0.594063,-1.05569 0.244873,-0.48196 0.652652,-1.22922 0.906201,-1.66054 0.253531,-0.43134 0.555443,-0.9471 0.670902,-1.14617 0.11546,-0.19907 0.516019,-0.86251 0.890118,-1.47433 0.374099,-0.61181 0.680176,-1.14634 0.680176,-1.18787 0,-0.0415 0.09844,-0.2196 0.218722,-0.39575 0.188824,-0.27647 0.407862,-0.75134 1.010293,-2.19031 0.06948,-0.16589 0.166269,-0.38312 0.215126,-0.48273 0.04885,-0.0996 0.216742,-0.68663 0.373045,-1.30445 0.245077,-0.96873 0.259974,-1.1387 0.108217,-1.23471 -0.422788,-0.2675 -1.497481,-0.47692 -2.447374,-0.47692 h -1.027759 l -0.144245,0.45242 c -0.152269,0.47755 -0.289079,0.81679 -0.704974,1.74811 -0.140445,0.31446 -0.255343,0.60324 -0.255343,0.6417 0,0.0908 -1.202238,2.48945 -2.173455,4.3364 -1.359632,2.58564 -1.804407,3.49524 -1.8062,3.69394 -8.13e-4,0.10728 0.210792,0.33576 0.470589,0.50768 0.259798,0.17193 0.678487,0.5592 0.93042,0.8606 0.390574,0.46725 0.52322,0.54798 0.900327,0.54798 0.24419,0 0.508958,-0.0803 0.591148,-0.17936 z m 7.445767,-0.44739 c 0.670042,-0.2862 1.327261,-0.92658 1.670118,-1.62735 0.395572,-0.80852 0.519969,-1.79631 0.26842,-2.13135 -0.155864,-0.2076 -0.187835,-0.18462 -0.461793,0.33179 -0.161877,0.30516 -0.335141,0.55482 -0.385026,0.55482 -0.04988,0 -0.0907,0.0712 -0.0907,0.15823 0,0.087 -0.09774,0.26347 -0.21719,0.3921 -0.119448,0.12865 -0.323038,0.42392 -0.452424,0.65615 -0.129394,0.23228 -0.262403,0.44943 -0.295588,0.48262 -0.109426,0.10942 -0.603234,1.10639 -0.603234,1.2179 0,0.1475 0.16397,0.13741 0.567407,-0.0347 z m -9.773245,-6.00898 c 0.908257,-1.39008 1.689368,-2.89639 1.970743,-3.80045 0.08256,-0.26543 0.206737,-0.60585 0.275824,-0.75651 0.51515,-1.12316 -1.879929,0.31655 -3.032993,1.8232 -0.299642,0.39151 -0.743594,1.48405 -0.869328,2.13936 -0.127713,0.6656 -0.08387,1.24637 0.15776,2.0883 l 0.13441,0.46834 0.228518,-0.28739 c 0.125679,-0.15804 0.636458,-0.91173 1.135066,-1.67485 z"
       style="fill:#000000;fill-opacity:1;stroke-width:0.12064944"
       sodipodi:nodetypes="cccccccscscccccccccccccccccccscccccccccscsccccccsccccccssscccccccccccccccscccccccccccccccccccsccccscccscccccsccccccccsccccccscccccccccccccccccccccccccccccccccccscccccccsccccccccccccccscscsccccccccsccccccccccccccccccccsccccccscccccccccccsccsssccccccccccscccccccsccccccccccccccccccsccccssscccsccccccsscccccccccccccccccsccccccscsccccccsccccccccccccssscccccccscccccccccscscscsccsccscccccccsccccccccscccscscsccccccsccccccccccscscsccscccccccscsccccccccccsccccccscscccccccccsscccccccccccccscccccccccccccccscccscccccssscccccccccccccccccscscccccccccscsccccscccccscccccccccccccccccccccccccccccsccccccccccccccsccccccccccccccscccccccscccccccscccccscccsccccsccccccsscccsccccccccccc" />
  </g>
</svg>
